<svg width="209" height="36" viewBox="0 0 209 36" fill="none" xmlns="http://www.w3.org/2000/svg">
<g clip-path="url(#clip0_490_7545)">
<path d="M54.0637 4.50513H37.5655H38.2174V9.00291H43.7722V28.3572H48.4749V9.00291H54.0637V4.50513Z" fill="#666D80"/>
<path d="M58.5618 14.2504V11.32H54.1659V28.3572H58.5618V20.2134C58.5618 16.6356 61.4584 15.6133 63.7416 15.8859V10.9792C61.5949 10.9792 59.4479 11.9333 58.5618 14.2504Z" fill="#666D80"/>
<path d="M68.4449 9.27547C69.9441 9.27547 71.1712 8.04881 71.1712 6.58361C71.1712 5.11841 69.9441 3.85767 68.4449 3.85767C66.9794 3.85767 65.7526 5.11841 65.7526 6.58361C65.7526 8.04881 66.9794 9.27547 68.4449 9.27547ZM66.2638 28.3571H70.66V11.3199H66.2638V28.3571Z" fill="#666D80"/>
<path d="M87.3584 11.32V13.4326C86.1657 11.8311 84.3256 10.843 81.9058 10.843C77.0669 10.843 73.4203 14.7956 73.4203 19.566C73.4203 24.3705 77.0669 28.2891 81.9058 28.2891C84.3256 28.2891 86.1657 27.3009 87.3584 25.6994V27.5394C87.3584 30.2312 85.6545 31.7304 82.8942 31.7304C80.27 31.7304 79.1457 30.6743 78.4299 29.3453L74.6815 31.492C76.1807 34.2521 79.1114 35.6489 82.7579 35.6489C87.2563 35.6489 91.6521 33.1275 91.6521 27.5394V11.32H87.3584ZM82.5876 24.2342C79.8272 24.2342 77.8165 22.2919 77.8165 19.566C77.8165 16.8741 79.8272 14.9319 82.5876 14.9319C85.3477 14.9319 87.3584 16.8741 87.3584 19.566C87.3584 22.2919 85.3477 24.2342 82.5876 24.2342Z" fill="#666D80"/>
<path d="M108.317 11.32V13.4326C107.124 11.8311 105.284 10.843 102.864 10.843C98.0252 10.843 94.3787 14.7956 94.3787 19.566C94.3787 24.3705 98.0252 28.2891 102.864 28.2891C105.284 28.2891 107.124 27.3009 108.317 25.6994V27.5394C108.317 30.2312 106.613 31.7304 103.853 31.7304C101.228 31.7304 100.104 30.6743 99.3883 29.3453L95.6396 31.492C97.1391 34.2521 100.07 35.6489 103.716 35.6489C108.214 35.6489 112.611 33.1275 112.611 27.5394V11.32H108.317ZM103.546 24.2342C100.785 24.2342 98.7749 22.2919 98.7749 19.566C98.7749 16.8741 100.785 14.9319 103.546 14.9319C106.306 14.9319 108.317 16.8741 108.317 19.566C108.317 22.2919 106.306 24.2342 103.546 24.2342Z" fill="#666D80"/>
<path d="M119.938 21.6445H132.785C132.887 21.0653 132.955 20.486 132.955 19.8386C132.955 14.8297 129.377 10.843 124.334 10.843C118.983 10.843 115.337 14.7615 115.337 19.8386C115.337 24.9157 118.949 28.8341 124.674 28.8341C127.946 28.8341 130.502 27.5053 132.103 25.1882L128.559 23.1438C127.81 24.1319 126.446 24.8475 124.743 24.8475C122.425 24.8475 120.551 23.8934 119.938 21.6445ZM119.869 18.2371C120.381 16.0564 121.982 14.7956 124.334 14.7956C126.174 14.7956 128.014 15.7838 128.559 18.2371H119.869Z" fill="#666D80"/>
<path d="M139.959 14.2504V11.32H135.563V28.3572H139.959V20.2134C139.959 16.6356 142.856 15.6133 145.139 15.8859V10.9792C142.992 10.9792 140.845 11.9333 139.959 14.2504Z" fill="#666D80"/>
<path d="M146.809 28.7999C148.41 28.7999 149.705 27.5051 149.705 25.9036C149.705 24.3021 148.41 23.0073 146.809 23.0073C145.207 23.0073 143.912 24.3021 143.912 25.9036C143.912 27.5051 145.207 28.7999 146.809 28.7999Z" fill="#666D80"/>
<path d="M165.279 4.50513V13.3303C164.052 11.7629 162.246 10.8429 159.758 10.8429C155.192 10.8429 151.443 14.7615 151.443 19.8385C151.443 24.9156 155.192 28.834 159.758 28.834C162.246 28.834 164.052 27.9141 165.279 26.3467V28.3572H169.675V4.50513H165.279ZM160.576 24.643C157.85 24.643 155.839 22.7008 155.839 19.8385C155.839 16.9763 157.85 15.034 160.576 15.034C163.268 15.034 165.279 16.9763 165.279 19.8385C165.279 22.7008 163.268 24.643 160.576 24.643Z" fill="#666D80"/>
<path d="M176.729 21.6445H189.576C189.678 21.0653 189.747 20.486 189.747 19.8386C189.747 14.8297 186.168 10.843 181.125 10.843C175.775 10.843 172.128 14.7615 172.128 19.8386C172.128 24.9157 175.741 28.8341 181.466 28.8341C184.737 28.8341 187.293 27.5053 188.895 25.1882L185.351 23.1438C184.601 24.1319 183.238 24.8475 181.534 24.8475C179.217 24.8475 177.342 23.8934 176.729 21.6445ZM176.661 18.2371C177.172 16.0564 178.774 14.7956 181.125 14.7956C182.965 14.7956 184.805 15.7838 185.351 18.2371H176.661Z" fill="#666D80"/>
<path d="M203.003 11.3201L198.846 23.246L194.722 11.3201H189.883L196.358 28.3573H201.367L207.842 11.3201H203.003Z" fill="#666D80"/>
<path fill-rule="evenodd" clip-rule="evenodd" d="M9.93384 11.7404L16.51 0.351562L32.8077 28.577H0.212402L6.7886 17.1879L11.4405 19.8734L9.51651 23.2056H23.5035L16.51 11.0941L14.5861 14.4263L9.93384 11.7404Z" fill="#666D80"/>
</g>
<defs>
<clipPath id="clip0_490_7545">
<rect width="207.969" height="36" fill="white" transform="translate(0.0576172 0.000244141)"/>
</clipPath>
</defs>
</svg>
