<svg width="156" height="36" viewBox="0 0 156 36" fill="none" xmlns="http://www.w3.org/2000/svg">
<g clip-path="url(#clip0_490_7558)">
<path d="M8.85013 19.5973C8.63709 19.8106 8.38403 19.9798 8.10547 20.0951C7.82692 20.2104 7.52834 20.2696 7.22686 20.2694H1.74394C1.28777 20.2681 0.8507 20.086 0.528745 19.7628C0.20679 19.4397 0.0262772 19.0018 0.0268569 18.5456V1.71733C0.0280089 1.26229 0.209287 0.826209 0.531053 0.504441C0.852821 0.182673 1.2889 0.00139616 1.74394 0.000244141H11.7956C12.2507 0.00139616 12.6867 0.182673 13.0085 0.504441C13.3302 0.826209 13.5116 1.26229 13.5127 1.71733V13.9857C13.5125 14.5927 13.2716 15.1749 12.8429 15.6046L10.8443 17.601L8.85013 19.5973Z" fill="#666D80"/>
<path d="M16.1723 8.82352C15.9593 8.6103 15.7906 8.35716 15.6757 8.07861C15.5607 7.80006 15.5019 7.50158 15.5024 7.20024V1.71733C15.5036 1.26229 15.6849 0.826209 16.0067 0.504441C16.3284 0.182673 16.7645 0.00139616 17.2195 0.000244141H34.0631C34.5185 0.000244141 34.9554 0.181151 35.2774 0.503169C35.5993 0.825185 35.7802 1.26193 35.7802 1.71733V11.769C35.7802 11.9944 35.7359 12.2177 35.6496 12.4261C35.5632 12.6344 35.4368 12.8237 35.2774 12.9831C35.1179 13.1426 34.9286 13.2691 34.7203 13.3553C34.5119 13.4416 34.2887 13.4861 34.0631 13.4861H21.7861C21.4851 13.4864 21.1871 13.4273 20.9089 13.3125C20.6308 13.1975 20.378 13.0289 20.165 12.8162L18.1686 10.8199L16.1723 8.82352Z" fill="#666D80"/>
<path d="M26.9483 16.2482C27.3776 15.8185 27.9599 15.5767 28.5673 15.5762H34.0633C34.5187 15.5767 34.9553 15.7579 35.2776 16.0796C35.5998 16.4015 35.7814 16.8379 35.7825 17.2933V34.1261C35.7819 34.5818 35.6007 35.0188 35.2784 35.3411C34.9561 35.6634 34.5191 35.8447 34.0633 35.8453H24.003C23.5471 35.8447 23.1102 35.6634 22.7879 35.3411C22.4655 35.0188 22.2842 34.5818 22.2836 34.1261V21.8577C22.2842 21.2503 22.5258 20.6679 22.9556 20.2387L24.952 18.2424L26.9483 16.2482Z" fill="#666D80"/>
<path d="M19.6239 27.0222C20.0537 27.4514 20.2954 28.0337 20.296 28.6411V34.1284C20.2947 34.5845 20.1126 35.0216 19.7894 35.3436C19.4663 35.6654 19.0284 35.846 18.5723 35.8454H1.74394C1.2889 35.8442 0.85282 35.663 0.531052 35.3412C0.209284 35.0195 0.0280075 34.5834 0.0268555 34.1284V24.0767C0.0268555 23.6213 0.207763 23.1846 0.52978 22.8625C0.851797 22.5405 1.28854 22.3596 1.74394 22.3596H14.0123C14.313 22.3592 14.6107 22.4182 14.8886 22.5331C15.1663 22.6481 15.4188 22.8167 15.6312 23.0294L17.6276 25.0258L19.6239 27.0222Z" fill="#666D80"/>
<path d="M92.4771 26.9783H92.4662C92.2349 27.1463 92.0298 27.2815 91.8836 27.382C91.7586 27.4612 91.6297 27.534 91.4974 27.6001C91.4076 27.6479 91.3101 27.6797 91.2094 27.694C91.103 27.7067 90.9959 27.7125 90.8887 27.7114C90.6831 27.7258 90.4786 27.6728 90.3058 27.5606C90.133 27.4485 90.0014 27.2831 89.9309 27.0896C89.7585 26.6729 89.6735 25.8852 89.6735 24.7485V19.4576C89.6883 18.7275 89.6394 17.9974 89.5272 17.2758C89.4318 16.7765 89.2494 16.298 88.9883 15.862C88.1156 14.4831 86.4159 13.7849 83.9156 13.7849C82.0829 13.7849 80.6101 14.0969 79.552 14.71C78.4938 15.323 77.9375 16.1826 77.9375 17.2626C77.9267 17.5129 77.9659 17.7627 78.0528 17.9976C78.1397 18.2325 78.2726 18.4477 78.4436 18.6306C78.6104 18.8025 78.8112 18.9376 79.0333 19.0274C79.2554 19.1172 79.4937 19.1597 79.7331 19.1522C79.983 19.1623 80.2326 19.123 80.4672 19.0365C80.702 18.95 80.9175 18.818 81.1011 18.6482C81.2727 18.4812 81.4079 18.2803 81.4976 18.0583C81.5874 17.8364 81.6299 17.598 81.6225 17.3587C81.6299 17.1533 81.5955 16.9484 81.5213 16.7568C81.4469 16.5651 81.3344 16.3905 81.1905 16.2437C81.0716 16.132 80.9588 16.014 80.8523 15.8903C80.8231 15.8563 80.8069 15.8129 80.8065 15.7682C80.8115 15.6966 80.8325 15.6271 80.868 15.5648C80.9035 15.5024 80.9526 15.4489 81.0116 15.4082C81.1762 15.2737 81.36 15.1649 81.557 15.0852C81.8067 14.9848 82.0663 14.9117 82.3316 14.867C82.6244 14.8127 82.9218 14.7857 83.2196 14.7863C84.6945 14.7863 85.6916 15.2227 86.1825 16.1063C86.2871 16.2912 86.3739 16.4855 86.4421 16.6866C86.5134 16.9127 86.5674 17.1439 86.6036 17.3783C86.6451 17.6467 86.6778 17.974 86.6996 18.382C86.7215 18.7899 86.7433 19.2939 86.7629 19.8416L83.7345 20.3892L82.504 20.5834C81.8866 20.6947 81.3782 20.8015 80.9505 20.8911C80.564 20.9744 80.1846 21.0883 79.816 21.2314C79.5182 21.3476 79.2306 21.4885 78.9564 21.6525C78.7014 21.8092 78.4573 21.9827 78.2255 22.1718C77.4487 22.8853 77.0559 23.8889 77.0559 25.1609C77.0559 26.518 77.4552 27.6045 78.2429 28.39C79.0305 29.1754 80.1214 29.5746 81.4829 29.5746C82.4385 29.5863 83.3821 29.3614 84.2298 28.9201C85.189 28.3639 86.0458 27.6473 86.7629 26.8016C86.8369 27.1497 86.9324 27.4929 87.0487 27.8292C87.1418 28.0612 87.2627 28.2809 87.4087 28.4837C87.6243 28.7861 87.9093 29.0323 88.24 29.2016C88.5576 29.3692 88.9107 29.4583 89.2698 29.4612C89.8681 29.4574 90.4554 29.3004 90.976 29.0053C91.6701 28.5932 92.3075 28.0922 92.8719 27.5151L92.4771 26.987V26.9783ZM86.8044 20.8693V23.3761C86.8044 24.4888 86.6319 25.3398 86.2895 25.9267C85.9588 26.4947 85.4779 26.9606 84.8996 27.2729C84.3187 27.5996 83.6636 27.7716 82.997 27.7725C82.609 27.7899 82.2215 27.7275 81.8585 27.589C81.4956 27.4505 81.165 27.2389 80.8872 26.9674C80.6187 26.6784 80.4104 26.3387 80.2748 25.9681C80.1392 25.5976 80.0789 25.2037 80.0975 24.8096C80.0975 23.3979 80.752 22.4336 82.0305 21.9405C82.6086 21.7229 83.2032 21.5522 83.8087 21.43C84.5527 21.2685 85.5542 21.0786 86.7956 20.867L86.8044 20.8693Z" fill="#666D80"/>
<path d="M103.637 27.2076H103.624C103.185 27.382 102.737 27.5327 102.282 27.6593C101.972 27.7433 101.652 27.7873 101.331 27.7901C100.53 27.7901 99.9213 27.5479 99.5221 27.0724C99.1228 26.5967 98.9177 25.8702 98.9177 24.9145V15.7749H103.417V14.7123H98.9177V8.69922H98.2195L96.1119 10.8069V14.7123H92.4509V15.7749H96.1076V26.0294C96.1076 27.2076 96.3803 28.1022 96.9191 28.6912C97.4581 29.2803 98.2785 29.5792 99.3562 29.5792C100.084 29.5759 100.807 29.4559 101.497 29.2236C102.368 28.9106 103.204 28.5084 103.993 28.0235H104.004L103.641 27.2338L103.637 27.2076Z" fill="#666D80"/>
<path d="M122.8 12.1814C123.059 12.1895 123.317 12.1445 123.557 12.0492C123.798 11.9538 124.018 11.8102 124.201 11.6272C124.473 11.358 124.659 11.0138 124.734 10.6386C124.81 10.2633 124.771 9.87414 124.624 9.5207C124.478 9.16726 124.229 8.86565 123.91 8.6544C123.59 8.44315 123.215 8.33187 122.833 8.33478C122.582 8.33268 122.332 8.38059 122.101 8.47575C121.868 8.5709 121.657 8.71137 121.48 8.88896C121.295 9.05925 121.149 9.26616 121.049 9.49646C120.949 9.72676 120.898 9.97537 120.899 10.2264C120.895 10.4826 120.942 10.7371 121.037 10.975C121.132 11.2129 121.274 11.4294 121.454 11.6119C121.626 11.7955 121.835 11.9411 122.067 12.0392C122.299 12.1373 122.548 12.1856 122.8 12.1814Z" fill="#666D80"/>
<path d="M153.688 25.5864C153.293 26.0062 152.874 26.4004 152.429 26.7667C152.072 27.0587 151.681 27.3076 151.266 27.5086C150.881 27.6907 150.474 27.8213 150.056 27.8969C149.58 27.9757 149.099 28.0129 148.617 28.0082C146.798 28.0082 145.419 27.3929 144.52 26.1798C144.126 25.6246 143.846 24.9964 143.697 24.3318C143.514 23.398 143.432 22.447 143.455 21.4954H154.936V21.4803C154.914 20.5727 154.817 19.6684 154.646 18.777C154.506 18.1114 154.265 17.4713 153.932 16.8788C153.362 15.8799 152.503 15.0774 151.467 14.5769C150.316 14.0216 149.049 13.7436 147.771 13.7653C146.698 13.7494 145.631 13.9366 144.627 14.3173C143.736 14.6597 142.928 15.1904 142.259 15.8729C141.588 16.5841 141.075 17.4296 140.754 18.3537C140.383 19.3954 140.2 20.4944 140.211 21.6002C140.2 22.718 140.384 23.8291 140.754 24.8838C141.079 25.8158 141.592 26.6712 142.262 27.3973C142.925 28.0973 143.733 28.6446 144.629 29.001C145.62 29.39 146.676 29.5826 147.74 29.5682C148.383 29.5725 149.024 29.5117 149.654 29.3871C150.232 29.2665 150.794 29.0714 151.322 28.8067C151.877 28.5257 152.399 28.1847 152.878 27.79C153.435 27.3277 153.95 26.8166 154.416 26.2627V26.2518L153.694 25.5973L153.688 25.5864ZM147.668 14.7799C149.016 14.7799 150.014 15.2163 150.635 16.0759C151.257 16.9355 151.645 18.4061 151.796 20.4395H143.477C143.628 18.3973 144.029 16.9267 144.67 16.0759C145.312 15.2249 146.32 14.7799 147.668 14.7799Z" fill="#666D80"/>
<path d="M72.6661 27.9078C72.4028 27.8299 72.1762 27.6604 72.0269 27.43C71.8698 27.1482 71.7768 26.8355 71.7541 26.5137C71.7041 25.9879 71.6823 25.46 71.6886 24.9319V6.27515L66.0421 7.6366H66.0312V8.68824H66.0442C66.5117 8.6988 66.9768 8.75803 67.4319 8.86496C67.7592 8.9401 68.0559 9.1128 68.2828 9.36023C68.508 9.64875 68.6519 9.99226 68.6996 10.3551C68.7838 10.8993 68.8218 11.4497 68.813 12.0002V24.9407C68.813 25.5799 68.7977 26.1057 68.7651 26.5071C68.7531 26.8349 68.6594 27.1544 68.4922 27.4366C68.3343 27.6656 68.1037 27.8347 67.8377 27.9166C67.4518 28.0354 67.0582 28.1272 66.6595 28.1916L65.8698 28.2569V29.2366H74.645V28.2417L73.8574 28.174C73.4546 28.1128 73.0566 28.0239 72.6661 27.9078Z" fill="#666D80"/>
<path d="M125.743 27.9078C125.48 27.8291 125.254 27.6598 125.104 27.43C124.948 27.1477 124.855 26.8352 124.831 26.5136C124.781 25.9879 124.759 25.4599 124.766 24.9318V13.3682L119.119 14.7165H119.108V15.7681H119.122C119.588 15.7772 120.054 15.8357 120.509 15.9427C120.836 16.0186 121.133 16.192 121.36 16.4402C121.583 16.7283 121.726 17.0711 121.772 17.4329C121.856 17.9771 121.895 18.5274 121.886 19.078V24.9318C121.886 25.571 121.871 26.0991 121.837 26.4984C121.826 26.8261 121.733 27.1456 121.565 27.4277C121.408 27.6574 121.177 27.8266 120.91 27.9078C120.524 28.0266 120.131 28.1184 119.732 28.1827L118.955 28.246H118.936V29.2365H127.703V28.2416L126.914 28.174C126.518 28.1119 126.127 28.023 125.743 27.9078Z" fill="#666D80"/>
<path d="M136.713 27.9078C136.45 27.8299 136.224 27.6604 136.074 27.43C135.917 27.1485 135.822 26.8356 135.8 26.5137C135.751 25.9878 135.73 25.4598 135.736 24.9319V6.27515L130.089 7.6366V8.68824H130.103C130.57 8.69903 131.035 8.75825 131.49 8.86496C131.817 8.93946 132.113 9.11231 132.339 9.36023C132.564 9.64857 132.709 9.99208 132.758 10.3551C132.841 10.8994 132.879 11.4497 132.871 12.0002V24.9407C132.871 25.5799 132.853 26.1078 132.821 26.5071C132.811 26.8351 132.717 27.1551 132.549 27.4366C132.391 27.6661 132.16 27.8353 131.894 27.9166C131.508 28.0349 131.114 28.1268 130.716 28.1916L129.939 28.2548H129.926V29.2366H138.69V28.2417L137.902 28.174C137.501 28.1128 137.104 28.0239 136.713 27.9078Z" fill="#666D80"/>
<path d="M116.734 7.55364C116.08 7.0911 115.236 6.85547 114.202 6.85547C112.653 6.85547 111.402 7.35947 110.492 8.35437C109.583 9.34929 109.118 10.7216 109.118 12.4366C109.118 12.6089 109.118 13.4599 109.133 13.7762C109.148 14.0926 109.17 14.398 109.212 14.7209H106.227V15.7748H109.17V24.9383C109.17 25.5929 109.155 26.11 109.122 26.507C109.111 26.8355 109.017 27.1559 108.849 27.4388C108.692 27.6683 108.461 27.8376 108.195 27.9187C107.81 28.0373 107.417 28.1292 107.019 28.1936L106.242 28.2569H106.229V29.2365H115.227V28.2394L114.212 28.174C113.814 28.1095 113.42 28.0176 113.034 27.8991C112.768 27.8179 112.537 27.6487 112.38 27.4191C112.212 27.1366 112.118 26.8161 112.107 26.4875C112.074 26.0926 112.059 25.5645 112.059 24.9188V15.7748H116.1V14.7122H112.044C111.712 13.7934 111.475 12.8429 111.337 11.8759C111.219 11.1445 111.235 10.398 111.383 9.6722C111.564 8.93037 111.945 8.41546 112.519 8.14492L112.582 8.11874L112.616 8.10783L112.648 8.09474L112.67 8.08383L112.746 8.06201C113.005 7.96617 113.278 7.9174 113.554 7.91801C113.835 7.9148 114.114 7.96977 114.374 8.07947C114.616 8.1842 114.739 8.29765 114.739 8.39147C114.739 8.45037 114.672 8.54638 114.546 8.67074C114.38 8.83155 114.248 9.02451 114.158 9.23793C114.068 9.45133 114.023 9.68073 114.024 9.9122C114.015 10.1381 114.053 10.3635 114.138 10.5731C114.223 10.7828 114.352 10.9718 114.516 11.1275C114.852 11.4367 115.298 11.6012 115.754 11.5856C116.02 11.5912 116.282 11.5387 116.524 11.4316C116.766 11.3245 116.982 11.1656 117.155 10.966C117.532 10.5336 117.73 9.97448 117.71 9.40165C117.715 9.03662 117.629 8.67617 117.458 8.3533C117.288 8.03044 117.039 7.75549 116.734 7.55364Z" fill="#666D80"/>
<path d="M47.7213 7.63647V8.69903L48.8995 8.82993C49.7723 8.91503 50.3701 9.14193 50.669 9.50411C50.7496 9.60008 50.8225 9.70221 50.8872 9.80957C50.9493 9.93979 50.987 10.0803 50.9984 10.2241C51.0203 10.4052 51.0356 10.6343 51.0465 10.9027C51.0574 11.171 51.0618 11.5353 51.0618 11.9936V24.8946C51.0618 25.3463 51.0618 25.7107 51.0465 25.9855C51.0312 26.2605 51.0203 26.483 50.9984 26.6641C50.9862 26.815 50.9478 26.9627 50.885 27.1005C50.8318 27.2069 50.7619 27.3042 50.6777 27.3885C50.3788 27.7506 49.7832 27.9776 48.9083 28.0626L47.741 28.1936H47.7301V29.2364H58.0173V28.174L56.5141 28.043C55.6589 27.9798 55.0632 27.7529 54.7446 27.3688C54.6612 27.2874 54.5957 27.1893 54.5527 27.0808C54.4996 26.9397 54.4615 26.7935 54.4391 26.6444C54.4042 26.4206 54.383 26.1947 54.3759 25.9681C54.365 25.7107 54.3606 25.3551 54.3606 24.8772V19.8896H57.173C57.4484 19.8945 57.7228 19.923 57.9934 19.9746C58.2749 20.0306 58.5394 20.1516 58.7658 20.3281C58.9956 20.5203 59.186 20.7552 59.3265 21.0198C59.5108 21.3666 59.6571 21.7323 59.7629 22.1107L60.0247 23.0139H61.3075V15.3427H60.0268L59.8196 16.2153C59.6975 16.6215 59.5481 17.0187 59.3723 17.4045C59.2445 17.6832 59.0637 17.9345 58.8399 18.1442C58.638 18.3256 58.3968 18.4578 58.1352 18.5303C57.9407 18.5794 57.742 18.6101 57.5418 18.6219H54.3541V8.98484H57.8886C58.7546 8.97211 59.6202 9.03195 60.4762 9.16375C61.0483 9.23761 61.5901 9.46365 62.045 9.8183C62.4346 10.1757 62.707 10.6428 62.8261 11.1579C62.9945 11.8735 63.0875 12.6048 63.1032 13.3397V13.3529H64.3577V7.63647H47.7213Z" fill="#666D80"/>
</g>
<defs>
<clipPath id="clip0_490_7558">
<rect width="155.25" height="36" fill="white" transform="translate(0.0268555 0.000244141)"/>
</clipPath>
</defs>
</svg>
