<svg width="119" height="36" viewBox="0 0 119 36" fill="none" xmlns="http://www.w3.org/2000/svg">
<g clip-path="url(#clip0_490_7572)">
<path d="M58.5629 20.9132L59.5994 25.703H59.6801L60.8375 20.9536L64.1927 7.82202H68.2657L62.8374 27.7793H56.2883L53.5742 15.7647L52.5742 10.9749H52.4937L51.4571 15.7647L48.7429 27.7793H42.355L36.9268 7.82202H41.1171L44.4319 20.9132L45.5893 25.6627H45.6698L46.7064 20.8729L49.6989 7.82202H55.5264L58.5593 20.9132H58.5629Z" fill="#666D80"/>
<path d="M70.6611 4.31029V0.000244141H75.0126V4.31029H70.6611ZM70.8223 27.7793H74.8953V7.82203H70.8223V27.7793Z" fill="#666D80"/>
<path d="M79.2065 7.822H83.1989V11.4143C84.5175 9.14028 86.4735 7.42285 89.5868 7.42285C93.4987 7.42285 96.4142 10.1363 96.4142 15.0872V27.7793H92.3412V15.4057C92.3412 12.4506 90.7442 10.8944 88.0704 10.8944C85.3966 10.8944 83.2794 12.5312 83.2794 16.4018V27.7756H79.2065V7.822Z" fill="#666D80"/>
<path d="M100.366 29.1745H104.399C104.637 31.3716 106.435 32.7668 109.549 32.7668C112.981 32.7668 114.9 31.0896 114.9 27.3398V23.8684C113.465 26.3035 111.307 27.6584 108.391 27.6584C103.56 27.6584 99.8097 24.0258 99.8097 17.559C99.8097 11.0921 103.564 7.42285 108.391 7.42285C111.307 7.42285 113.501 8.8217 114.941 11.2935V7.822H118.974V27.0981C118.974 32.7668 115.461 36.0002 109.472 36.0002C104.084 36.0002 100.769 33.3673 100.37 29.1745H100.366ZM109.468 24.2675C112.901 24.2675 114.896 21.9532 114.896 18.3609V16.7644C114.896 13.0914 112.901 10.7368 109.468 10.7368C106.037 10.7368 104 12.9706 104 17.0427V18.079C104 22.0704 106.117 24.2639 109.468 24.2639V24.2675Z" fill="#666D80"/>
<path d="M24.8176 7.82202C23.1437 7.82202 21.6676 8.70087 20.4332 10.4403C19.1622 12.2383 18.2356 14.7943 17.3418 17.266C17.0415 18.0936 16.7411 18.9286 16.4261 19.7304C16.1111 18.9248 15.8071 18.0899 15.5067 17.2587C14.6131 14.7869 13.69 12.2309 12.4191 10.433C11.1846 8.69721 9.70855 7.8147 8.03466 7.8147H0.276855V10.7039C0.738367 10.7039 1.45627 10.8504 2.35732 12.1248C3.40122 13.6005 4.25831 15.9661 5.0861 18.262C5.86628 20.4153 6.66843 22.6453 7.705 24.359C9.06023 26.6111 10.6499 27.7024 12.5619 27.7024C14.3053 27.7024 15.5691 26.743 16.4261 25.7543C17.2832 26.743 18.5469 27.7024 20.2904 27.7024C22.2023 27.7024 23.7883 26.6075 25.1472 24.359C26.1801 22.6453 26.9859 20.4153 27.7661 18.2548C28.5939 15.9661 29.4474 13.6005 30.4913 12.1248C31.3959 10.8504 32.1139 10.7039 32.5754 10.7039V7.81104H24.8176V7.82202ZM12.5619 24.8241C10.4814 24.8241 9.03093 20.8108 7.74896 17.266C6.89919 14.9187 6.02378 12.4909 4.84436 10.7149H8.03099C8.4925 10.7149 9.21041 10.8613 10.1151 12.1357C11.1591 13.6115 12.0161 15.9771 12.8439 18.2693C13.4483 19.9466 14.0746 21.6712 14.8071 23.1617C13.8402 24.6374 13.0746 24.8241 12.5619 24.8241ZM25.0996 17.2734C23.8213 20.8144 22.3709 24.8241 20.2904 24.8241C19.7776 24.8241 19.012 24.6374 18.045 23.1617C18.7776 21.6712 19.4004 19.9466 20.0083 18.2657C20.8361 15.9771 21.6896 13.6115 22.7335 12.1357C23.6382 10.8613 24.3561 10.7149 24.8176 10.7149H28.0042C26.8284 12.4909 25.9493 14.9187 25.0996 17.2734Z" fill="#666D80"/>
</g>
<defs>
<clipPath id="clip0_490_7572">
<rect width="118.717" height="36" fill="white" transform="translate(0.276855 0.000244141)"/>
</clipPath>
</defs>
</svg>
