<svg width="132" height="36" viewBox="0 0 132 36" fill="none" xmlns="http://www.w3.org/2000/svg">
<path d="M131.244 23.8453C131.244 24.828 131.011 25.6599 130.545 26.3409C130.088 27.0134 129.403 27.5263 128.489 27.8797C127.575 28.2246 126.438 28.397 125.075 28.397C124.067 28.397 123.2 28.3323 122.476 28.203C121.761 28.0737 121.037 27.8582 120.304 27.5565V24.2978C121.088 24.6513 121.929 24.9444 122.825 25.1772C123.731 25.4013 124.524 25.5134 125.205 25.5134C125.972 25.5134 126.519 25.4013 126.847 25.1772C127.183 24.9444 127.351 24.6427 127.351 24.272C127.351 24.0306 127.282 23.8151 127.144 23.6254C127.015 23.4272 126.731 23.2073 126.291 22.9659C125.851 22.7159 125.162 22.3927 124.222 21.9961C123.317 21.6168 122.571 21.2332 121.985 20.8453C121.407 20.4573 120.976 20.0004 120.692 19.4746C120.416 18.9401 120.278 18.2634 120.278 17.4444C120.278 16.1082 120.795 15.1039 121.83 14.4315C122.873 13.7504 124.265 13.4099 126.007 13.4099C126.903 13.4099 127.757 13.5004 128.567 13.6815C129.386 13.8625 130.226 14.1513 131.088 14.5478L129.899 17.3927C129.183 17.0823 128.507 16.828 127.869 16.6297C127.239 16.4315 126.597 16.3323 125.942 16.3323C125.364 16.3323 124.929 16.4099 124.636 16.5651C124.343 16.7203 124.196 16.9573 124.196 17.2763C124.196 17.5091 124.269 17.7159 124.416 17.897C124.571 18.078 124.864 18.2806 125.295 18.5047C125.735 18.7203 126.377 19.0004 127.222 19.3453C128.041 19.6815 128.752 20.0349 129.356 20.4056C129.959 20.7677 130.425 21.2203 130.752 21.7634C131.08 22.2978 131.244 22.9918 131.244 23.8453Z" fill="#666D80"/>
<path d="M117.899 20.8841C117.899 22.0909 117.735 23.1599 117.407 24.0909C117.088 25.022 116.619 25.8108 115.998 26.4573C115.386 27.0953 114.644 27.578 113.774 27.9056C112.912 28.2332 111.938 28.397 110.851 28.397C109.834 28.397 108.899 28.2332 108.045 27.9056C107.201 27.578 106.463 27.0953 105.834 26.4573C105.213 25.8108 104.731 25.022 104.386 24.0909C104.05 23.1599 103.882 22.0909 103.882 20.8841C103.882 19.2806 104.166 17.9228 104.735 16.8108C105.304 15.6987 106.114 14.8539 107.166 14.2763C108.218 13.6987 109.472 13.4099 110.929 13.4099C112.282 13.4099 113.481 13.6987 114.524 14.2763C115.576 14.8539 116.399 15.6987 116.994 16.8108C117.597 17.9228 117.899 19.2806 117.899 20.8841ZM107.903 20.8841C107.903 21.8323 108.007 22.6297 108.213 23.2763C108.42 23.9228 108.744 24.4099 109.183 24.7375C109.623 25.0651 110.196 25.2289 110.903 25.2289C111.601 25.2289 112.166 25.0651 112.597 24.7375C113.037 24.4099 113.356 23.9228 113.554 23.2763C113.761 22.6297 113.864 21.8323 113.864 20.8841C113.864 19.9272 113.761 19.1341 113.554 18.5047C113.356 17.8668 113.037 17.3884 112.597 17.0694C112.157 16.7504 111.584 16.5909 110.877 16.5909C109.834 16.5909 109.076 16.9487 108.601 17.6642C108.136 18.3797 107.903 19.453 107.903 20.8841Z" fill="#666D80"/>
<path d="M94.0151 34.5004C91.9978 34.5004 90.4547 34.147 89.3858 33.4401C88.3254 32.7418 87.7953 31.759 87.7953 30.4918C87.7953 29.6211 88.0668 28.8927 88.6099 28.3065C89.153 27.7203 89.9504 27.3022 91.0022 27.0522C90.597 26.8797 90.2435 26.5996 89.9418 26.2116C89.6401 25.8151 89.4892 25.397 89.4892 24.9573C89.4892 24.4056 89.6487 23.9487 89.9677 23.5866C90.2866 23.2159 90.7478 22.8539 91.3513 22.5004C90.5927 22.1728 89.9892 21.647 89.5409 20.9228C89.1013 20.1987 88.8815 19.3453 88.8815 18.3625C88.8815 17.3108 89.1099 16.4185 89.5668 15.6858C90.0323 14.9444 90.7047 14.3797 91.5841 13.9918C92.472 13.6039 93.5496 13.4099 94.8168 13.4099C95.0841 13.4099 95.3944 13.4272 95.7478 13.4616C96.1013 13.4961 96.4246 13.5349 96.7177 13.578C97.0194 13.6211 97.222 13.6556 97.3254 13.6815H102.369V15.6858L100.106 16.2677C100.312 16.5866 100.468 16.9272 100.571 17.2892C100.675 17.6513 100.726 18.0349 100.726 18.4401C100.726 19.9918 100.183 21.203 99.097 22.0737C98.0194 22.9358 96.5194 23.3668 94.597 23.3668C94.1401 23.3409 93.7091 23.3065 93.3039 23.2634C93.1056 23.4185 92.9547 23.5823 92.8513 23.7547C92.7478 23.9272 92.6961 24.1082 92.6961 24.2978C92.6961 24.4875 92.7737 24.647 92.9289 24.7763C93.0927 24.897 93.3341 24.9918 93.653 25.0608C93.9806 25.1211 94.3858 25.1513 94.8685 25.1513H97.3254C98.9116 25.1513 100.119 25.4918 100.946 26.1728C101.782 26.8539 102.2 27.8539 102.2 29.1728C102.2 30.8625 101.494 32.1728 100.08 33.1039C98.6746 34.0349 96.653 34.5004 94.0151 34.5004ZM94.1832 31.9272C95.1228 31.9272 95.9289 31.8366 96.6013 31.6556C97.2823 31.4832 97.8039 31.2332 98.1659 30.9056C98.528 30.5866 98.7091 30.203 98.7091 29.7547C98.7091 29.3927 98.6013 29.1039 98.3858 28.8884C98.1789 28.6815 97.8599 28.5349 97.4289 28.4487C97.0065 28.3625 96.4634 28.3194 95.7996 28.3194H93.7565C93.2737 28.3194 92.8384 28.397 92.4504 28.5522C92.0711 28.7073 91.7694 28.9228 91.5453 29.1987C91.3211 29.4832 91.2091 29.8108 91.2091 30.1815C91.2091 30.7246 91.4677 31.1513 91.9849 31.4616C92.5108 31.772 93.2435 31.9272 94.1832 31.9272ZM94.8168 20.9616C95.5582 20.9616 96.1013 20.7332 96.4461 20.2763C96.7909 19.8194 96.9634 19.1987 96.9634 18.4142C96.9634 17.5435 96.7823 16.8927 96.4203 16.4616C96.0668 16.022 95.5323 15.8022 94.8168 15.8022C94.0927 15.8022 93.5496 16.022 93.1875 16.4616C92.8254 16.8927 92.6444 17.5435 92.6444 18.4142C92.6444 19.1987 92.8211 19.8194 93.1746 20.2763C93.5366 20.7332 94.0841 20.9616 94.8168 20.9616Z" fill="#666D80"/>
<path d="M85.6358 13.6814V28.1383H81.6918V13.6814H85.6358ZM83.6703 8.01758C84.2565 8.01758 84.7608 8.15551 85.1832 8.43137C85.6056 8.69861 85.8168 9.20292 85.8168 9.9443C85.8168 10.6771 85.6056 11.1857 85.1832 11.4702C84.7608 11.746 84.2565 11.884 83.6703 11.884C83.0755 11.884 82.5668 11.746 82.1444 11.4702C81.7306 11.1857 81.5237 10.6771 81.5237 9.9443C81.5237 9.20292 81.7306 8.69861 82.1444 8.43137C82.5668 8.15551 83.0755 8.01758 83.6703 8.01758Z" fill="#666D80"/>
<path d="M69.5108 28.3969C67.8988 28.3969 66.5841 27.7676 65.5669 26.509C64.5582 25.2417 64.0539 23.384 64.0539 20.9357C64.0539 18.4615 64.5669 16.5909 65.5927 15.3236C66.6186 14.0478 67.9591 13.4098 69.6143 13.4098C70.3039 13.4098 70.9117 13.5046 71.4375 13.6943C71.9634 13.884 72.416 14.1383 72.7953 14.4572C73.1832 14.7762 73.5108 15.134 73.7781 15.5305H73.9074C73.8556 15.2546 73.791 14.8495 73.7134 14.315C73.6444 13.7719 73.61 13.2159 73.61 12.6469V8.01758H77.5669V28.1383H74.541L73.7781 26.2633H73.61C73.36 26.6598 73.0453 27.0219 72.666 27.3495C72.2953 27.6684 71.8513 27.9228 71.3341 28.1124C70.8169 28.3021 70.2091 28.3969 69.5108 28.3969ZM70.8944 25.2546C71.972 25.2546 72.7306 24.9357 73.1703 24.2978C73.6186 23.6512 73.8556 22.6814 73.8815 21.3883V20.9615C73.8815 19.5564 73.666 18.4831 73.235 17.7417C72.8039 16.9917 72.0022 16.6167 70.8298 16.6167C69.9591 16.6167 69.2781 16.9917 68.7867 17.7417C68.2953 18.4917 68.0496 19.5736 68.0496 20.9874C68.0496 22.4012 68.2953 23.4659 68.7867 24.1814C69.2867 24.8969 69.9893 25.2546 70.8944 25.2546Z" fill="#666D80"/>
<path d="M61.3254 18.6599C61.3254 20.1168 61.1444 21.4444 60.7823 22.6427C60.4203 23.8323 59.8685 24.8582 59.1272 25.7203C58.3944 26.5823 57.4634 27.2461 56.3341 27.7117C55.2048 28.1685 53.8685 28.397 52.3254 28.397C50.7823 28.397 49.4461 28.1685 48.3168 27.7117C47.1875 27.2461 46.2522 26.5823 45.5108 25.7203C44.778 24.8582 44.2306 23.828 43.8685 22.6298C43.5065 21.4315 43.3254 20.0996 43.3254 18.6341C43.3254 16.6772 43.6444 14.9746 44.2823 13.5263C44.9289 12.0694 45.9203 10.9401 47.2565 10.1384C48.5927 9.33665 50.291 8.93579 52.3513 8.93579C54.403 8.93579 56.0884 9.33665 57.4073 10.1384C58.7349 10.9401 59.7177 12.0694 60.3556 13.5263C61.0022 14.9832 61.3254 16.6944 61.3254 18.6599ZM47.528 18.6599C47.528 19.9789 47.6918 21.1168 48.0194 22.0737C48.3556 23.022 48.8772 23.7548 49.5841 24.272C50.291 24.7806 51.2048 25.0349 52.3254 25.0349C53.4634 25.0349 54.3858 24.7806 55.0927 24.272C55.7996 23.7548 56.3125 23.022 56.6315 22.0737C56.9591 21.1168 57.1229 19.9789 57.1229 18.6599C57.1229 16.6772 56.7522 15.1168 56.0108 13.9789C55.2694 12.841 54.0496 12.272 52.3513 12.272C51.222 12.272 50.2996 12.5306 49.5841 13.0479C48.8772 13.5565 48.3556 14.2892 48.0194 15.2461C47.6918 16.1944 47.528 17.3323 47.528 18.6599Z" fill="#666D80"/>
<path d="M3.51086 16.3448V5.27006C3.51086 4.65485 4.1583 4.25471 4.70856 4.52984L26.858 15.6046C27.6391 15.9951 27.3612 17.1724 26.4879 17.1724H4.33845C3.88139 17.1724 3.51086 16.8019 3.51086 16.3448Z" fill="#666D80"/>
<path d="M33.304 3.93129V15.4106C33.304 16.028 32.6523 16.428 32.1018 16.1485L9.49106 4.66923C8.71483 4.27514 8.99516 3.10371 9.8657 3.10371H32.4764C32.9335 3.10371 33.304 3.47423 33.304 3.93129Z" fill="#666D80"/>
<path d="M3.51086 19.6557V30.7304C3.51086 31.3456 4.1583 31.7458 4.70856 31.4706L26.858 20.3959C27.6391 20.0054 27.3612 18.8281 26.4879 18.8281H4.33845C3.88139 18.8281 3.51086 19.1986 3.51086 19.6557Z" fill="#666D80"/>
<path d="M33.304 32.0692V20.5899C33.304 19.9725 32.6523 19.5725 32.1018 19.852L9.49106 31.3313C8.71483 31.7253 8.99516 32.8968 9.8657 32.8968H32.4764C32.9335 32.8968 33.304 32.5263 33.304 32.0692Z" fill="#666D80"/>
<path fill-rule="evenodd" clip-rule="evenodd" d="M-0.00634766 4.34507C-0.00634766 1.94549 1.9389 0.000244141 4.33848 0.000244141H32.4764C34.876 0.000244141 36.8212 1.94549 36.8212 4.34507V31.6554C36.8212 34.055 34.876 36.0002 32.4764 36.0002H4.33848C1.9389 36.0002 -0.00634766 34.055 -0.00634766 31.6554V4.34507ZM4.33848 2.06921C3.08156 2.06921 2.06262 3.08815 2.06262 4.34507V31.6554C2.06262 32.9123 3.08156 33.9313 4.33848 33.9313H32.4764C33.7333 33.9313 34.7523 32.9123 34.7523 31.6554V4.34507C34.7523 3.08815 33.7333 2.06921 32.4764 2.06921H4.33848Z" fill="#666D80"/>
</svg>
