<svg width="169" height="36" viewBox="0 0 169 36" fill="none" xmlns="http://www.w3.org/2000/svg">
<path d="M168.127 8.37318V12.6888H156.102V8.37318H168.127ZM158.629 3.41211H164.844V21.8179C164.844 22.3466 164.906 22.7585 165.029 23.0535C165.152 23.3363 165.361 23.5392 165.656 23.6621C165.963 23.7728 166.369 23.8281 166.873 23.8281C167.23 23.8281 167.525 23.822 167.758 23.8097C167.992 23.7851 168.213 23.7544 168.422 23.7175V28.1622C167.893 28.3343 167.34 28.4634 166.762 28.5494C166.184 28.6478 165.57 28.697 164.918 28.697C163.59 28.697 162.453 28.488 161.506 28.0699C160.572 27.6519 159.859 26.9941 159.367 26.0966C158.875 25.199 158.629 24.031 158.629 22.5925V3.41211Z" fill="#666D80"/>
<path d="M153.779 8.37322V28.3282H147.545V8.37322H153.779ZM147.176 3.22772C147.176 2.34247 147.496 1.61706 148.135 1.05149C148.775 0.485912 149.605 0.203125 150.625 0.203125C151.646 0.203125 152.475 0.485912 153.115 1.05149C153.754 1.61706 154.074 2.34247 154.074 3.22772C154.074 4.11297 153.754 4.83838 153.115 5.40395C152.475 5.96953 151.646 6.25232 150.625 6.25232C149.605 6.25232 148.775 5.96953 148.135 5.40395C147.496 4.83838 147.176 4.11297 147.176 3.22772Z" fill="#666D80"/>
<path d="M129.821 1.47559V28.3281H123.348V1.47559H129.821ZM145.848 1.47559L135.446 15.0863L129.36 21.7441L128.18 15.8055L132.071 9.90388L137.862 1.47559H145.848ZM138.194 28.3281L131.26 16.2297L136.295 12.5227L145.848 28.3281H138.194Z" fill="#666D80"/>
<path d="M120.582 8.37318V12.6888H108.557V8.37318H120.582ZM111.084 3.41211H117.299V21.8179C117.299 22.3466 117.36 22.7585 117.483 23.0535C117.606 23.3363 117.815 23.5392 118.11 23.6621C118.418 23.7728 118.824 23.8281 119.328 23.8281C119.684 23.8281 119.979 23.822 120.213 23.8097C120.446 23.7851 120.668 23.7544 120.877 23.7175V28.1622C120.348 28.3343 119.795 28.4634 119.217 28.5494C118.639 28.6478 118.024 28.697 117.373 28.697C116.045 28.697 114.908 28.488 113.961 28.0699C113.026 27.6519 112.313 26.9941 111.821 26.0966C111.33 25.199 111.084 24.031 111.084 22.5925V3.41211Z" fill="#666D80"/>
<path d="M88.0491 18.5536V18.1663C88.0491 16.7032 88.2581 15.3569 88.6761 14.1274C89.0941 12.8856 89.7089 11.8097 90.5204 10.8999C91.3319 9.99005 92.3339 9.28309 93.5265 8.77899C94.7192 8.26259 96.0962 8.00439 97.6577 8.00439C99.2315 8.00439 100.615 8.26259 101.807 8.77899C103.012 9.28309 104.02 9.99005 104.832 10.8999C105.643 11.8097 106.258 12.8856 106.676 14.1274C107.094 15.3569 107.303 16.7032 107.303 18.1663V18.5536C107.303 20.0044 107.094 21.3507 106.676 22.5925C106.258 23.822 105.643 24.8979 104.832 25.82C104.02 26.7298 103.018 27.4368 101.826 27.9409C100.633 28.445 99.2561 28.6971 97.6946 28.6971C96.1331 28.6971 94.7499 28.445 93.545 27.9409C92.3401 27.4368 91.3319 26.7298 90.5204 25.82C89.7089 24.8979 89.0941 23.822 88.6761 22.5925C88.2581 21.3507 88.0491 20.0044 88.0491 18.5536ZM94.2642 18.1663V18.5536C94.2642 19.3036 94.3196 20.0044 94.4302 20.6561C94.5409 21.3077 94.7253 21.8794 94.9835 22.3712C95.2417 22.8507 95.5921 23.2257 96.0347 23.4962C96.4774 23.7667 97.0306 23.902 97.6946 23.902C98.3462 23.902 98.8872 23.7667 99.3175 23.4962C99.7601 23.2257 100.111 22.8507 100.369 22.3712C100.627 21.8794 100.811 21.3077 100.922 20.6561C101.033 20.0044 101.088 19.3036 101.088 18.5536V18.1663C101.088 17.4409 101.033 16.7585 100.922 16.1192C100.811 15.4675 100.627 14.8958 100.369 14.404C100.111 13.8999 99.7601 13.5065 99.3175 13.2237C98.8749 12.9409 98.3216 12.7995 97.6577 12.7995C97.0061 12.7995 96.4589 12.9409 96.0163 13.2237C95.586 13.5065 95.2417 13.8999 94.9835 14.404C94.7253 14.8958 94.5409 15.4675 94.4302 16.1192C94.3196 16.7585 94.2642 17.4409 94.2642 18.1663Z" fill="#666D80"/>
<path d="M84.9876 0.000244141V28.3282H78.7539V0.000244141H84.9876Z" fill="#666D80"/>
<path d="M74.5858 8.37322V28.3282H68.3521V8.37322H74.5858ZM67.9833 3.22772C67.9833 2.34247 68.303 1.61706 68.9423 1.05149C69.5817 0.485912 70.4116 0.203125 71.4321 0.203125C72.4526 0.203125 73.2825 0.485912 73.9218 1.05149C74.5612 1.61706 74.8808 2.34247 74.8808 3.22772C74.8808 4.11297 74.5612 4.83838 73.9218 5.40395C73.2825 5.96953 72.4526 6.25232 71.4321 6.25232C70.4116 6.25232 69.5817 5.96953 68.9423 5.40395C68.303 4.83838 67.9833 4.11297 67.9833 3.22772Z" fill="#666D80"/>
<path d="M53.0079 12.2093V36.0003H46.7927V8.37325H52.5837L53.0079 12.2093ZM65.2538 18.111V18.4983C65.2538 19.9491 65.0878 21.2954 64.7558 22.5372C64.4239 23.779 63.9321 24.861 63.2804 25.7831C62.6288 26.7052 61.8173 27.4245 60.846 27.9409C59.887 28.445 58.7743 28.6971 57.5079 28.6971C56.3153 28.6971 55.2886 28.4327 54.428 27.904C53.5673 27.3753 52.848 26.6438 52.2702 25.7093C51.6923 24.7749 51.2251 23.7052 50.8685 22.5003C50.512 21.2954 50.2292 20.0229 50.0202 18.6827V18.1847C50.2292 16.7462 50.512 15.4122 50.8685 14.1827C51.2251 12.9409 51.6923 11.8589 52.2702 10.9368C52.848 10.0146 53.5612 9.29538 54.4095 8.77899C55.2702 8.26259 56.2968 8.00439 57.4894 8.00439C58.7558 8.00439 59.8685 8.24415 60.8276 8.72366C61.7989 9.20317 62.6103 9.89169 63.262 10.7892C63.9259 11.6745 64.4239 12.738 64.7558 13.9798C65.0878 15.2216 65.2538 16.5987 65.2538 18.111ZM59.0386 18.4983V18.111C59.0386 17.3364 58.9833 16.6294 58.8726 15.9901C58.762 15.3384 58.5837 14.7729 58.3378 14.2933C58.1042 13.8138 57.7907 13.445 57.3972 13.1868C57.0038 12.9286 56.5181 12.7995 55.9403 12.7995C55.2763 12.7995 54.7169 12.904 54.262 13.113C53.8193 13.3097 53.4628 13.6171 53.1923 14.0351C52.9341 14.4409 52.7497 14.9511 52.639 15.5659C52.5407 16.1683 52.4976 16.8753 52.5099 17.6868V19.1991C52.4853 20.1335 52.5775 20.9573 52.7866 21.6704C52.9956 22.3712 53.3583 22.9184 53.8747 23.3118C54.3911 23.7052 55.0919 23.902 55.9771 23.902C56.5673 23.902 57.0591 23.7667 57.4526 23.4962C57.846 23.2134 58.1595 22.8261 58.3931 22.3343C58.6267 21.8302 58.7927 21.2524 58.8911 20.6007C58.9894 19.9491 59.0386 19.2483 59.0386 18.4983Z" fill="#666D80"/>
<path d="M24.7168 18.5536V18.1663C24.7168 16.7032 24.9259 15.3569 25.3439 14.1274C25.7619 12.8856 26.3767 11.8097 27.1882 10.8999C27.9996 9.99005 29.0017 9.28309 30.1943 8.77899C31.3869 8.26259 32.764 8.00439 34.3255 8.00439C35.8992 8.00439 37.2824 8.26259 38.4751 8.77899C39.68 9.28309 40.6882 9.99005 41.4997 10.8999C42.3111 11.8097 42.9259 12.8856 43.3439 14.1274C43.762 15.3569 43.971 16.7032 43.971 18.1663V18.5536C43.971 20.0044 43.762 21.3507 43.3439 22.5925C42.9259 23.822 42.3111 24.8979 41.4997 25.82C40.6882 26.7298 39.6861 27.4368 38.4935 27.9409C37.3009 28.445 35.9238 28.6971 34.3624 28.6971C32.8009 28.6971 31.4177 28.445 30.2128 27.9409C29.0078 27.4368 27.9996 26.7298 27.1882 25.82C26.3767 24.8979 25.7619 23.822 25.3439 22.5925C24.9259 21.3507 24.7168 20.0044 24.7168 18.5536ZM30.932 18.1663V18.5536C30.932 19.3036 30.9873 20.0044 31.098 20.6561C31.2087 21.3077 31.3931 21.8794 31.6513 22.3712C31.9095 22.8507 32.2599 23.2257 32.7025 23.4962C33.1451 23.7667 33.6984 23.902 34.3624 23.902C35.014 23.902 35.555 23.7667 35.9853 23.4962C36.4279 23.2257 36.7783 22.8507 37.0365 22.3712C37.2947 21.8794 37.4792 21.3077 37.5898 20.6561C37.7005 20.0044 37.7558 19.3036 37.7558 18.5536V18.1663C37.7558 17.4409 37.7005 16.7585 37.5898 16.1192C37.4792 15.4675 37.2947 14.8958 37.0365 14.404C36.7783 13.8999 36.4279 13.5065 35.9853 13.2237C35.5427 12.9409 34.9894 12.7995 34.3255 12.7995C33.6738 12.7995 33.1267 12.9409 32.6841 13.2237C32.2537 13.5065 31.9095 13.8999 31.6513 14.404C31.3931 14.8958 31.2087 15.4675 31.098 16.1192C30.9873 16.7585 30.932 17.4409 30.932 18.1663Z" fill="#666D80"/>
<path d="M16.2702 19.236H22.7251C22.6391 21.1048 22.135 22.7524 21.2128 24.1786C20.2907 25.6048 19.012 26.7175 17.3768 27.5167C15.7538 28.3036 13.8358 28.697 11.6226 28.697C9.82756 28.697 8.22305 28.3958 6.80912 27.7933C5.40747 27.1909 4.21485 26.3241 3.23124 25.1929C2.25993 24.0618 1.51607 22.6909 0.999679 21.0802C0.49558 19.4696 0.24353 17.656 0.24353 15.6396V14.1827C0.24353 12.1663 0.507875 10.3527 1.03656 8.74208C1.57755 7.11913 2.33985 5.74208 3.32345 4.61093C4.31936 3.46748 5.51198 2.59453 6.90133 1.99207C8.29068 1.38961 9.83371 1.08838 11.5304 1.08838C13.8665 1.08838 15.8399 1.50641 17.4505 2.34248C19.0612 3.17855 20.3091 4.32814 21.1944 5.79126C22.0796 7.24208 22.6022 8.89577 22.762 10.7523H16.3071C16.2825 9.74413 16.1104 8.90192 15.7907 8.22569C15.471 7.53716 14.9669 7.02077 14.2784 6.6765C13.5899 6.33224 12.6739 6.16011 11.5304 6.16011C10.7313 6.16011 10.0366 6.30765 9.44642 6.60273C8.85625 6.89782 8.36445 7.36503 7.971 8.00437C7.57756 8.64372 7.28248 9.47364 7.08576 10.4941C6.90133 11.5023 6.80912 12.7195 6.80912 14.1458V15.6396C6.80912 17.0659 6.89518 18.2831 7.06731 19.2913C7.23944 20.2995 7.51608 21.1233 7.89723 21.7626C8.27838 22.4019 8.77019 22.8753 9.37265 23.1827C9.9874 23.4778 10.7374 23.6253 11.6226 23.6253C12.6063 23.6253 13.4362 23.4716 14.1124 23.1642C14.7886 22.8446 15.3112 22.3651 15.68 21.7257C16.0489 21.0741 16.2456 20.2442 16.2702 19.236Z" fill="#666D80"/>
</svg>
