<svg width="122" height="36" viewBox="0 0 122 36" fill="none" xmlns="http://www.w3.org/2000/svg">
<path fill-rule="evenodd" clip-rule="evenodd" d="M2.33339 0C1.27782 0 0.422119 0.855707 0.422119 1.91127C0.422119 5.42165 3.26784 8.26737 6.77822 8.26737H10.3854C9.97738 9.48193 9.75625 10.7823 9.75625 12.1344V26.9356C9.75625 30.6178 12.7413 33.6029 16.4235 33.6029C20.1057 33.6029 23.0907 30.6178 23.0907 26.9356V10.8898C23.0907 10.6198 22.8718 10.4009 22.6018 10.4009C21.2516 10.4009 20.1571 11.4954 20.1571 12.8455V26.9356C20.1571 28.9977 18.4855 30.6693 16.4235 30.6693C14.3614 30.6693 12.6898 28.9977 12.6898 26.9356V12.1344C12.6898 7.05292 16.8092 2.93358 21.8906 2.93358H31.1818C30.7072 4.40371 29.3275 5.46713 27.6994 5.46713H21.733C18.0642 5.46713 15.09 8.4413 15.09 12.1101V26.1356C15.09 26.9457 15.7467 27.6024 16.5568 27.6024C17.3669 27.6024 18.0236 26.9457 18.0236 26.1356V12.1101C18.0236 10.0615 19.6844 8.40072 21.733 8.40072H27.6994C31.3402 8.40072 34.2917 5.44928 34.2917 1.80849C34.2917 0.809688 33.482 0 32.4832 0H21.8906C21.7248 0 21.5597 0.00332799 21.3954 0.00992099C21.3391 0.00336864 21.2819 0 21.2239 0H2.33339ZM13.979 2.93358H3.51099C3.94574 4.32443 5.2441 5.33379 6.77822 5.33379H11.8395C12.4442 4.44179 13.1646 3.63454 13.979 2.93358Z" fill="#666D80"/>
<path d="M121.943 10.7319L111.623 35.9377H108.683L112.06 27.6817L105.149 10.7319H108.308L113.687 24.617L119.003 10.7319H121.943Z" fill="#666D80"/>
<path d="M88.8942 13.8907C89.4572 12.9108 90.2911 12.0977 91.3961 11.4514C92.5219 10.7843 93.8249 10.4507 95.3051 10.4507C96.8271 10.4507 98.2031 10.8155 99.4331 11.5452C100.684 12.2749 101.664 13.3069 102.373 14.6412C103.082 15.9547 103.436 17.487 103.436 19.2383C103.436 20.9687 103.082 22.5115 102.373 23.8667C101.664 25.2218 100.684 26.2746 99.4331 27.0252C98.2031 27.7757 96.8271 28.151 95.3051 28.151C93.8457 28.151 92.5531 27.8279 91.4273 27.1816C90.3224 26.5144 89.478 25.6909 88.8942 24.711V36.0004H86.0484V10.7321H88.8942V13.8907ZM100.528 19.2383C100.528 17.9457 100.267 16.8199 99.7459 15.8609C99.2246 14.9018 98.5158 14.1721 97.6193 13.6718C96.7437 13.1714 95.7742 12.9212 94.711 12.9212C93.6685 12.9212 92.6991 13.1818 91.8026 13.703C90.927 14.2034 90.2181 14.9435 89.6761 15.9234C89.1549 16.8824 88.8942 17.9978 88.8942 19.2696C88.8942 20.5622 89.1549 21.6984 89.6761 22.6783C90.2181 23.6373 90.927 24.3774 91.8026 24.8987C92.6991 25.399 93.6685 25.6492 94.711 25.6492C95.7742 25.6492 96.7437 25.399 97.6193 24.8987C98.5158 24.3774 99.2246 23.6373 99.7459 22.6783C100.267 21.6984 100.528 20.5518 100.528 19.2383Z" fill="#666D80"/>
<path d="M79.8221 7.94885C79.2801 7.94885 78.8214 7.76122 78.4461 7.38595C78.0709 7.01068 77.8832 6.55201 77.8832 6.00995C77.8832 5.46789 78.0709 5.00923 78.4461 4.63395C78.8214 4.25868 79.2801 4.07104 79.8221 4.07104C80.3433 4.07104 80.7812 4.25868 81.1356 4.63395C81.5108 5.00923 81.6985 5.46789 81.6985 6.00995C81.6985 6.55201 81.5108 7.01068 81.1356 7.38595C80.7812 7.76122 80.3433 7.94885 79.8221 7.94885ZM81.1981 10.7321V27.8695H78.3523V10.7321H81.1981Z" fill="#666D80"/>
<path d="M56.1556 19.2383C56.1556 17.487 56.51 15.9547 57.2189 14.6412C57.9277 13.3069 58.8972 12.2749 60.1272 11.5452C61.3781 10.8155 62.7645 10.4507 64.2865 10.4507C65.7876 10.4507 67.0906 10.7738 68.1956 11.4201C69.3005 12.0664 70.124 12.8795 70.6661 13.8594V10.7321H73.5432V27.8696H70.6661V24.6797C70.1032 25.6805 69.2588 26.5144 68.133 27.1816C67.0281 27.8279 65.7355 28.151 64.2552 28.151C62.7333 28.151 61.3573 27.7757 60.1272 27.0252C58.8972 26.2746 57.9277 25.2218 57.2189 23.8667C56.51 22.5115 56.1556 20.9687 56.1556 19.2383ZM70.6661 19.2696C70.6661 17.977 70.4055 16.8512 69.8843 15.8921C69.3631 14.9331 68.6542 14.2034 67.7577 13.703C66.8821 13.1818 65.9127 12.9212 64.8494 12.9212C63.7861 12.9212 62.8167 13.1714 61.941 13.6718C61.0654 14.1721 60.367 14.9018 59.8458 15.8609C59.3246 16.8199 59.0639 17.9457 59.0639 19.2383C59.0639 20.5518 59.3246 21.6984 59.8458 22.6783C60.367 23.6373 61.0654 24.3774 61.941 24.8987C62.8167 25.399 63.7861 25.6492 64.8494 25.6492C65.9127 25.6492 66.8821 25.399 67.7577 24.8987C68.6542 24.3774 69.3631 23.6373 69.8843 22.6783C70.4055 21.6984 70.6661 20.5622 70.6661 19.2696Z" fill="#666D80"/>
<path d="M53.7159 6.07227V8.38644H47.7741V27.8693H44.9283V8.38644H38.9552V6.07227H53.7159Z" fill="#666D80"/>
</svg>
