<svg width="485" height="379" viewBox="0 0 485 379" fill="none" xmlns="http://www.w3.org/2000/svg">
<mask id="mask0_606_2583" style="mask-type:alpha" maskUnits="userSpaceOnUse" x="0" y="0" width="485" height="485">
<rect x="0.5" y="0.543945" width="484" height="484" fill="url(#paint0_radial_606_2583)"/>
</mask>
<g mask="url(#mask0_606_2583)">
<circle opacity="0.82" cx="4.23457" cy="4.27851" r="3.73457" fill="#F689FF"/>
<circle opacity="0.82" cx="35.6049" cy="4.27851" r="3.73457" fill="#F689FF"/>
<circle opacity="0.26" cx="66.9753" cy="4.27851" r="3.73457" fill="white" fill-opacity="0.5"/>
<circle opacity="0.85" cx="98.3457" cy="4.27851" r="3.73457" fill="#F689FF"/>
<circle opacity="0.66" cx="129.716" cy="4.27851" r="3.73457" fill="white" fill-opacity="0.5"/>
<circle opacity="0.57" cx="161.086" cy="4.27851" r="3.73457" fill="#F689FF"/>
<circle opacity="0.88" cx="192.457" cy="4.27851" r="3.73457" fill="white" fill-opacity="0.5"/>
<circle opacity="0.4" cx="223.827" cy="4.27851" r="3.73457" fill="#F689FF"/>
<circle opacity="0.09" cx="255.198" cy="4.27851" r="3.73457" fill="white" fill-opacity="0.5"/>
<circle opacity="0.26" cx="286.568" cy="4.27851" r="3.73457" fill="#F689FF"/>
<circle opacity="0.11" cx="317.938" cy="4.27851" r="3.73457" fill="#F689FF"/>
<circle opacity="0.06" cx="349.309" cy="4.27851" r="3.73457" fill="#F689FF"/>
<circle opacity="0.02" cx="380.679" cy="4.27851" r="3.73457" fill="#F689FF"/>
<circle opacity="0.01" cx="412.049" cy="4.27851" r="3.73457" fill="#F689FF"/>
<circle opacity="0.63" cx="443.42" cy="4.27851" r="3.73457" fill="#F689FF"/>
<circle opacity="0.22" cx="474.79" cy="4.27851" r="3.73457" fill="white" fill-opacity="0.5"/>
<circle opacity="0.98" cx="35.6049" cy="35.6489" r="3.73457" fill="#F689FF"/>
<circle opacity="0.63" cx="66.9753" cy="35.6489" r="3.73457" fill="#F689FF"/>
<circle opacity="0.5" cx="98.3457" cy="35.6489" r="3.73457" fill="white" fill-opacity="0.5"/>
<circle opacity="0.86" cx="129.716" cy="35.6489" r="3.73457" fill="white" fill-opacity="0.5"/>
<circle opacity="0.27" cx="161.086" cy="35.6489" r="3.73457" fill="#F689FF"/>
<circle opacity="0.96" cx="192.457" cy="35.6489" r="3.73457" fill="white" fill-opacity="0.5"/>
<circle opacity="0.69" cx="223.827" cy="35.6489" r="3.73457" fill="#F689FF"/>
<circle opacity="0.51" cx="255.198" cy="35.6489" r="3.73457" fill="white" fill-opacity="0.5"/>
<circle opacity="0.41" cx="286.568" cy="35.6489" r="3.73457" fill="#F689FF"/>
<circle opacity="0.81" cx="317.938" cy="35.6489" r="3.73457" fill="#F689FF"/>
<circle opacity="0.73" cx="349.309" cy="35.6489" r="3.73457" fill="#F689FF"/>
<circle opacity="0.4" cx="380.679" cy="35.6489" r="3.73457" fill="white" fill-opacity="0.5"/>
<circle opacity="0.28" cx="412.049" cy="35.6489" r="3.73457" fill="#F689FF"/>
<circle opacity="0.6" cx="443.42" cy="35.6489" r="3.73457" fill="white" fill-opacity="0.5"/>
<circle opacity="0.62" cx="474.79" cy="35.6489" r="3.73457" fill="white" fill-opacity="0.5"/>
<circle opacity="0.43" cx="4.23457" cy="67.0192" r="3.73457" fill="#F689FF"/>
<circle opacity="0.73" cx="35.6049" cy="67.0192" r="3.73457" fill="white" fill-opacity="0.5"/>
<circle opacity="0.99" cx="66.9753" cy="67.0192" r="3.73457" fill="#F689FF"/>
<circle opacity="0.45" cx="98.3457" cy="67.0192" r="3.73457" fill="white" fill-opacity="0.5"/>
<circle opacity="0.43" cx="129.716" cy="67.0192" r="3.73457" fill="white" fill-opacity="0.5"/>
<circle opacity="0.91" cx="161.086" cy="67.0192" r="3.73457" fill="white" fill-opacity="0.5"/>
<circle cx="192.457" cy="67.0192" r="3.73457" fill="white" fill-opacity="0.5"/>
<circle opacity="0.14" cx="223.827" cy="67.0192" r="3.73457" fill="white" fill-opacity="0.5"/>
<circle opacity="0.02" cx="255.198" cy="67.0192" r="3.73457" fill="white" fill-opacity="0.5"/>
<circle opacity="0.6" cx="286.568" cy="67.0192" r="3.73457" fill="#F689FF"/>
<circle opacity="0.2" cx="317.938" cy="67.0192" r="3.73457" fill="white" fill-opacity="0.5"/>
<circle opacity="0.06" cx="349.309" cy="67.0192" r="3.73457" fill="#F689FF"/>
<circle opacity="0.22" cx="380.679" cy="67.0192" r="3.73457" fill="white" fill-opacity="0.5"/>
<circle opacity="0.93" cx="412.049" cy="67.0192" r="3.73457" fill="white" fill-opacity="0.5"/>
<circle opacity="0.13" cx="443.42" cy="67.0192" r="3.73457" fill="#F689FF"/>
<circle opacity="0.42" cx="474.79" cy="67.0192" r="3.73457" fill="#F689FF"/>
<circle opacity="0.6" cx="4.23457" cy="98.3896" r="3.73457" fill="#F689FF"/>
<circle opacity="0.29" cx="35.6049" cy="98.3896" r="3.73457" fill="#F689FF"/>
<circle opacity="0.71" cx="66.9753" cy="98.3896" r="3.73457" fill="white" fill-opacity="0.5"/>
<circle opacity="0.78" cx="98.3457" cy="98.3896" r="3.73457" fill="#F689FF"/>
<circle opacity="0.77" cx="129.716" cy="98.3896" r="3.73457" fill="#F689FF"/>
<circle opacity="0.38" cx="161.086" cy="98.3896" r="3.73457" fill="#F689FF"/>
<circle opacity="0.6" cx="192.457" cy="98.3896" r="3.73457" fill="white" fill-opacity="0.5"/>
<circle opacity="0.9" cx="223.827" cy="98.3896" r="3.73457" fill="white" fill-opacity="0.5"/>
<circle opacity="0.38" cx="255.198" cy="98.3896" r="3.73457" fill="#F689FF"/>
<circle opacity="0.97" cx="286.568" cy="98.3896" r="3.73457" fill="white" fill-opacity="0.5"/>
<circle opacity="0.04" cx="317.938" cy="98.3896" r="3.73457" fill="#F689FF"/>
<circle opacity="0.3" cx="349.309" cy="98.3896" r="3.73457" fill="#F689FF"/>
<circle opacity="0.65" cx="380.679" cy="98.3896" r="3.73457" fill="#F689FF"/>
<circle opacity="0.13" cx="412.049" cy="98.3896" r="3.73457" fill="#F689FF"/>
<circle opacity="0.45" cx="443.42" cy="98.3896" r="3.73457" fill="white" fill-opacity="0.5"/>
<circle opacity="0.15" cx="474.79" cy="98.3896" r="3.73457" fill="white" fill-opacity="0.5"/>
<circle opacity="0.49" cx="4.23457" cy="129.76" r="3.73457" fill="white" fill-opacity="0.5"/>
<circle opacity="0.59" cx="35.6049" cy="129.76" r="3.73457" fill="#F689FF"/>
<circle opacity="0.04" cx="66.9753" cy="129.76" r="3.73457" fill="#F689FF"/>
<circle opacity="0.43" cx="98.3457" cy="129.76" r="3.73457" fill="white" fill-opacity="0.5"/>
<circle opacity="0.03" cx="129.716" cy="129.76" r="3.73457" fill="white" fill-opacity="0.5"/>
<circle opacity="0.5" cx="161.086" cy="129.76" r="3.73457" fill="#F689FF"/>
<circle opacity="0.06" cx="192.457" cy="129.76" r="3.73457" fill="white" fill-opacity="0.5"/>
<circle opacity="0.94" cx="223.827" cy="129.76" r="3.73457" fill="white" fill-opacity="0.5"/>
<circle opacity="0.64" cx="255.198" cy="129.76" r="3.73457" fill="white" fill-opacity="0.5"/>
<circle opacity="0.84" cx="286.568" cy="129.76" r="3.73457" fill="white" fill-opacity="0.5"/>
<circle opacity="0.88" cx="317.938" cy="129.76" r="3.73457" fill="#F689FF"/>
<circle opacity="0.11" cx="349.309" cy="129.76" r="3.73457" fill="#F689FF"/>
<circle opacity="0.57" cx="380.679" cy="129.76" r="3.73457" fill="#F689FF"/>
<circle opacity="0.04" cx="412.049" cy="129.76" r="3.73457" fill="white" fill-opacity="0.5"/>
<circle opacity="0.13" cx="443.42" cy="129.76" r="3.73457" fill="#F689FF"/>
<circle opacity="0.02" cx="474.79" cy="129.76" r="3.73457" fill="white" fill-opacity="0.5"/>
<circle opacity="0.1" cx="4.23457" cy="161.13" r="3.73457" fill="#F689FF"/>
<circle opacity="0.55" cx="35.6049" cy="161.13" r="3.73457" fill="#F689FF"/>
<circle opacity="0.48" cx="66.9753" cy="161.13" r="3.73457" fill="white" fill-opacity="0.5"/>
<circle opacity="0.45" cx="98.3457" cy="161.13" r="3.73457" fill="#F689FF"/>
<circle opacity="0.28" cx="129.716" cy="161.13" r="3.73457" fill="white" fill-opacity="0.5"/>
<circle opacity="0.82" cx="161.086" cy="161.13" r="3.73457" fill="white" fill-opacity="0.5"/>
<circle opacity="0.18" cx="192.457" cy="161.13" r="3.73457" fill="white" fill-opacity="0.5"/>
<circle opacity="0.88" cx="223.827" cy="161.13" r="3.73457" fill="#F689FF"/>
<circle opacity="0.27" cx="255.198" cy="161.13" r="3.73457" fill="#F689FF"/>
<circle opacity="0.48" cx="286.568" cy="161.13" r="3.73457" fill="white" fill-opacity="0.5"/>
<circle opacity="0.98" cx="317.938" cy="161.13" r="3.73457" fill="#F689FF"/>
<circle opacity="0.83" cx="349.309" cy="161.13" r="3.73457" fill="white" fill-opacity="0.5"/>
<circle opacity="0.43" cx="380.679" cy="161.13" r="3.73457" fill="#F689FF"/>
<circle opacity="0.02" cx="412.049" cy="161.13" r="3.73457" fill="#F689FF"/>
<circle opacity="0.63" cx="443.42" cy="161.13" r="3.73457" fill="white" fill-opacity="0.5"/>
<circle opacity="0.05" cx="474.79" cy="161.13" r="3.73457" fill="white" fill-opacity="0.5"/>
<circle opacity="0.26" cx="4.23457" cy="192.501" r="3.73457" fill="#F689FF"/>
<circle opacity="0.25" cx="35.6049" cy="192.501" r="3.73457" fill="#F689FF"/>
<circle opacity="0.53" cx="66.9753" cy="192.501" r="3.73457" fill="#F689FF"/>
<circle opacity="0.08" cx="98.3457" cy="192.501" r="3.73457" fill="white" fill-opacity="0.5"/>
<circle opacity="0.32" cx="129.716" cy="192.501" r="3.73457" fill="white" fill-opacity="0.5"/>
<circle opacity="0.46" cx="161.086" cy="192.501" r="3.73457" fill="white" fill-opacity="0.5"/>
<circle opacity="0.25" cx="192.457" cy="192.501" r="3.73457" fill="#F689FF"/>
<circle cx="223.827" cy="192.501" r="3.73457" fill="#F689FF"/>
<circle opacity="0.6" cx="255.198" cy="192.501" r="3.73457" fill="white" fill-opacity="0.5"/>
<circle opacity="0.3" cx="286.568" cy="192.501" r="3.73457" fill="#F689FF"/>
<circle opacity="0.02" cx="317.938" cy="192.501" r="3.73457" fill="#F689FF"/>
<circle opacity="0.75" cx="349.309" cy="192.501" r="3.73457" fill="#F689FF"/>
<circle opacity="0.17" cx="380.679" cy="192.501" r="3.73457" fill="#F689FF"/>
<circle opacity="0.34" cx="412.049" cy="192.501" r="3.73457" fill="#F689FF"/>
<circle opacity="0.25" cx="443.42" cy="192.501" r="3.73457" fill="#F689FF"/>
<circle opacity="0.02" cx="474.79" cy="192.501" r="3.73457" fill="white" fill-opacity="0.5"/>
<circle opacity="0.1" cx="4.23457" cy="223.871" r="3.73457" fill="white" fill-opacity="0.5"/>
<circle opacity="0.99" cx="35.6049" cy="223.871" r="3.73457" fill="white" fill-opacity="0.5"/>
<circle opacity="0.04" cx="66.9753" cy="223.871" r="3.73457" fill="white" fill-opacity="0.5"/>
<circle opacity="0.73" cx="98.3457" cy="223.871" r="3.73457" fill="#F689FF"/>
<circle opacity="0.02" cx="129.716" cy="223.871" r="3.73457" fill="#F689FF"/>
<circle opacity="0.49" cx="161.086" cy="223.871" r="3.73457" fill="white" fill-opacity="0.5"/>
<circle opacity="0.68" cx="192.457" cy="223.871" r="3.73457" fill="white" fill-opacity="0.5"/>
<circle opacity="0.71" cx="223.827" cy="223.871" r="3.73457" fill="white" fill-opacity="0.5"/>
<circle opacity="0.19" cx="255.198" cy="223.871" r="3.73457" fill="white" fill-opacity="0.5"/>
<circle opacity="0.57" cx="286.568" cy="223.871" r="3.73457" fill="#F689FF"/>
<circle opacity="0.6" cx="317.938" cy="223.871" r="3.73457" fill="#F689FF"/>
<circle opacity="0.94" cx="349.309" cy="223.871" r="3.73457" fill="#F689FF"/>
<circle opacity="0.43" cx="380.679" cy="223.871" r="3.73457" fill="#F689FF"/>
<circle opacity="0.03" cx="412.049" cy="223.871" r="3.73457" fill="white" fill-opacity="0.5"/>
<circle opacity="0.94" cx="443.42" cy="223.871" r="3.73457" fill="white" fill-opacity="0.5"/>
<circle opacity="0.83" cx="474.79" cy="223.871" r="3.73457" fill="#F689FF"/>
<circle opacity="0.87" cx="4.23457" cy="255.241" r="3.73457" fill="white" fill-opacity="0.5"/>
<circle opacity="0.05" cx="35.6049" cy="255.241" r="3.73457" fill="#F689FF"/>
<circle opacity="0.45" cx="66.9753" cy="255.241" r="3.73457" fill="#F689FF"/>
<circle opacity="0.97" cx="98.3457" cy="255.241" r="3.73457" fill="#F689FF"/>
<circle opacity="0.37" cx="129.716" cy="255.241" r="3.73457" fill="white" fill-opacity="0.5"/>
<circle opacity="0.72" cx="161.086" cy="255.241" r="3.73457" fill="#F689FF"/>
<circle opacity="0.5" cx="192.457" cy="255.241" r="3.73457" fill="white" fill-opacity="0.5"/>
<circle opacity="0.77" cx="223.827" cy="255.241" r="3.73457" fill="#F689FF"/>
<circle opacity="0.24" cx="255.198" cy="255.241" r="3.73457" fill="white" fill-opacity="0.5"/>
<circle opacity="0.91" cx="286.568" cy="255.241" r="3.73457" fill="white" fill-opacity="0.5"/>
<circle opacity="0.26" cx="317.938" cy="255.241" r="3.73457" fill="#F689FF"/>
<circle opacity="0.49" cx="349.309" cy="255.241" r="3.73457" fill="white" fill-opacity="0.5"/>
<circle opacity="0.27" cx="380.679" cy="255.241" r="3.73457" fill="#F689FF"/>
<circle opacity="0.66" cx="412.049" cy="255.241" r="3.73457" fill="white" fill-opacity="0.5"/>
<circle opacity="0.41" cx="443.42" cy="255.241" r="3.73457" fill="white" fill-opacity="0.5"/>
<circle opacity="0.27" cx="474.79" cy="255.241" r="3.73457" fill="#F689FF"/>
<circle opacity="0.84" cx="4.23457" cy="286.612" r="3.73457" fill="#F689FF"/>
<circle opacity="0.83" cx="35.6049" cy="286.612" r="3.73457" fill="#F689FF"/>
<circle opacity="0.1" cx="66.9753" cy="286.612" r="3.73457" fill="#F689FF"/>
<circle opacity="0.39" cx="98.3457" cy="286.612" r="3.73457" fill="#F689FF"/>
<circle opacity="0.89" cx="129.716" cy="286.612" r="3.73457" fill="#F689FF"/>
<circle opacity="0.08" cx="161.086" cy="286.612" r="3.73457" fill="white" fill-opacity="0.5"/>
<circle opacity="0.39" cx="192.457" cy="286.612" r="3.73457" fill="#F689FF"/>
<circle opacity="0.09" cx="223.827" cy="286.612" r="3.73457" fill="white" fill-opacity="0.5"/>
<circle opacity="0.88" cx="255.198" cy="286.612" r="3.73457" fill="white" fill-opacity="0.5"/>
<circle opacity="0.73" cx="286.568" cy="286.612" r="3.73457" fill="#F689FF"/>
<circle opacity="0.71" cx="317.938" cy="286.612" r="3.73457" fill="#F689FF"/>
<circle opacity="0.63" cx="349.309" cy="286.612" r="3.73457" fill="white" fill-opacity="0.5"/>
<circle opacity="0.64" cx="380.679" cy="286.612" r="3.73457" fill="#F689FF"/>
<circle opacity="0.74" cx="412.049" cy="286.612" r="3.73457" fill="white" fill-opacity="0.5"/>
<circle opacity="0.22" cx="443.42" cy="286.612" r="3.73457" fill="white" fill-opacity="0.5"/>
<circle opacity="0.08" cx="474.79" cy="286.612" r="3.73457" fill="#F689FF"/>
<circle opacity="0.88" cx="4.23457" cy="317.982" r="3.73457" fill="white" fill-opacity="0.5"/>
<circle opacity="0.19" cx="35.6049" cy="317.982" r="3.73457" fill="#F689FF"/>
<circle opacity="0.42" cx="66.9753" cy="317.982" r="3.73457" fill="#F689FF"/>
<circle opacity="0.62" cx="98.3457" cy="317.982" r="3.73457" fill="#F689FF"/>
<circle opacity="0.28" cx="129.716" cy="317.982" r="3.73457" fill="white" fill-opacity="0.5"/>
<circle opacity="0.62" cx="161.086" cy="317.982" r="3.73457" fill="#F689FF"/>
<circle opacity="0.26" cx="192.457" cy="317.982" r="3.73457" fill="#F689FF"/>
<circle opacity="0.67" cx="223.827" cy="317.982" r="3.73457" fill="white" fill-opacity="0.5"/>
<circle opacity="0.19" cx="255.198" cy="317.982" r="3.73457" fill="#F689FF"/>
<circle opacity="0.43" cx="286.568" cy="317.982" r="3.73457" fill="white" fill-opacity="0.5"/>
<circle opacity="0.02" cx="317.938" cy="317.982" r="3.73457" fill="white" fill-opacity="0.5"/>
<circle opacity="0.95" cx="349.309" cy="317.982" r="3.73457" fill="#F689FF"/>
<circle opacity="0.16" cx="380.679" cy="317.982" r="3.73457" fill="white" fill-opacity="0.5"/>
<circle opacity="0.95" cx="412.049" cy="317.982" r="3.73457" fill="white" fill-opacity="0.5"/>
<circle opacity="0.52" cx="443.42" cy="317.982" r="3.73457" fill="white" fill-opacity="0.5"/>
<circle opacity="0.48" cx="474.79" cy="317.982" r="3.73457" fill="white" fill-opacity="0.5"/>
<circle opacity="0.01" cx="4.23457" cy="349.352" r="3.73457" fill="#F689FF"/>
<circle opacity="0.53" cx="35.6049" cy="349.352" r="3.73457" fill="white" fill-opacity="0.5"/>
<circle opacity="0.26" cx="66.9753" cy="349.352" r="3.73457" fill="#F689FF"/>
<circle opacity="0.58" cx="98.3457" cy="349.352" r="3.73457" fill="#F689FF"/>
<circle opacity="0.85" cx="129.716" cy="349.352" r="3.73457" fill="white" fill-opacity="0.5"/>
<circle opacity="0.8" cx="161.086" cy="349.352" r="3.73457" fill="#F689FF"/>
<circle opacity="0.16" cx="192.457" cy="349.352" r="3.73457" fill="white" fill-opacity="0.5"/>
<circle opacity="0.04" cx="223.827" cy="349.352" r="3.73457" fill="white" fill-opacity="0.5"/>
<circle opacity="0.56" cx="255.198" cy="349.352" r="3.73457" fill="white" fill-opacity="0.5"/>
<circle opacity="0.89" cx="286.568" cy="349.352" r="3.73457" fill="#F689FF"/>
<circle opacity="0.6" cx="317.938" cy="349.352" r="3.73457" fill="white" fill-opacity="0.5"/>
<circle opacity="0.61" cx="349.309" cy="349.352" r="3.73457" fill="white" fill-opacity="0.5"/>
<circle opacity="0.48" cx="380.679" cy="349.352" r="3.73457" fill="white" fill-opacity="0.5"/>
<circle opacity="0.26" cx="412.049" cy="349.352" r="3.73457" fill="white" fill-opacity="0.5"/>
<circle opacity="0.84" cx="443.42" cy="349.352" r="3.73457" fill="white" fill-opacity="0.5"/>
<circle opacity="0.08" cx="474.79" cy="349.352" r="3.73457" fill="white" fill-opacity="0.5"/>
<circle opacity="0.03" cx="4.23457" cy="380.723" r="3.73457" fill="#F689FF"/>
<circle opacity="0.64" cx="35.6049" cy="380.723" r="3.73457" fill="white" fill-opacity="0.5"/>
<circle opacity="0.65" cx="66.9753" cy="380.723" r="3.73457" fill="white" fill-opacity="0.5"/>
<circle opacity="0.84" cx="98.3457" cy="380.723" r="3.73457" fill="#F689FF"/>
<circle opacity="0.56" cx="129.716" cy="380.723" r="3.73457" fill="#F689FF"/>
<circle opacity="0.21" cx="161.086" cy="380.723" r="3.73457" fill="#F689FF"/>
<circle opacity="0.54" cx="192.457" cy="380.723" r="3.73457" fill="#F689FF"/>
<circle opacity="0.24" cx="223.827" cy="380.723" r="3.73457" fill="white" fill-opacity="0.5"/>
<circle opacity="0.58" cx="255.198" cy="380.723" r="3.73457" fill="white" fill-opacity="0.5"/>
<circle opacity="0.86" cx="286.568" cy="380.723" r="3.73457" fill="white" fill-opacity="0.5"/>
<circle opacity="0.68" cx="317.938" cy="380.723" r="3.73457" fill="#F689FF"/>
<circle opacity="0.89" cx="349.309" cy="380.723" r="3.73457" fill="#F689FF"/>
<circle opacity="0.15" cx="380.679" cy="380.723" r="3.73457" fill="white" fill-opacity="0.5"/>
<circle opacity="0.15" cx="412.049" cy="380.723" r="3.73457" fill="white" fill-opacity="0.5"/>
<circle opacity="0.14" cx="443.42" cy="380.723" r="3.73457" fill="white" fill-opacity="0.5"/>
<circle opacity="0.75" cx="474.79" cy="380.723" r="3.73457" fill="#F689FF"/>
</g>
<defs>
<radialGradient id="paint0_radial_606_2583" cx="0" cy="0" r="1" gradientUnits="userSpaceOnUse" gradientTransform="translate(242.5 242.544) rotate(90) scale(242)">
<stop stop-color="#D9D9D9"/>
<stop offset="1" stop-color="#D9D9D9" stop-opacity="0"/>
</radialGradient>
</defs>
</svg>
