<svg width="1441" height="914" viewBox="0 0 1441 914" fill="none" xmlns="http://www.w3.org/2000/svg">
<g opacity="0.12">
<path opacity="0.5" d="M16.3823 -511.882H12.8529V899.882H16.3823V-511.882Z" fill="white" fill-opacity="0.5"/>
<path opacity="0.2" d="M85.3887 -513.647H81.8488V901.647H85.3887V-513.647Z" fill="white" fill-opacity="0.5"/>
<path opacity="0.2" d="M156.155 -513.647H152.615V901.647H156.155V-513.647Z" fill="white" fill-opacity="0.5"/>
<path opacity="0.2" d="M226.919 -513.647H223.379V901.647H226.919V-513.647Z" fill="white" fill-opacity="0.5"/>
<path opacity="0.2" d="M297.681 -513.647H294.145V901.647H297.681V-513.647Z" fill="white" fill-opacity="0.5"/>
<path opacity="0.5" d="M368.445 -513.647H364.905V901.647H368.445V-513.647Z" fill="white" fill-opacity="0.5"/>
<path opacity="0.2" d="M439.209 -513.647H435.672V901.647H439.209V-513.647Z" fill="white" fill-opacity="0.5"/>
<path opacity="0.2" d="M509.975 -513.647H506.438V901.647H509.975V-513.647Z" fill="white" fill-opacity="0.5"/>
<path opacity="0.2" d="M580.739 -513.647H577.202V901.647H580.739V-513.647Z" fill="white" fill-opacity="0.5"/>
<path opacity="0.2" d="M651.504 -513.647H647.968V901.647H651.504V-513.647Z" fill="white" fill-opacity="0.5"/>
<path opacity="0.5" d="M722.268 -513.647H718.728V901.647H722.268V-513.647Z" fill="white" fill-opacity="0.5"/>
<path opacity="0.2" d="M793.033 -513.647H789.496V901.647H793.033V-513.647Z" fill="white" fill-opacity="0.5"/>
<path opacity="0.2" d="M863.802 -513.647H860.262V901.647H863.802V-513.647Z" fill="white" fill-opacity="0.5"/>
<path opacity="0.2" d="M934.562 -513.647H931.022V901.647H934.562V-513.647Z" fill="white" fill-opacity="0.5"/>
<path opacity="0.2" d="M1005.33 -513.647H1001.79V901.647H1005.33V-513.647Z" fill="white" fill-opacity="0.5"/>
<path opacity="0.5" d="M1076.09 -513.647H1072.56V901.647H1076.09V-513.647Z" fill="white" fill-opacity="0.5"/>
<path opacity="0.2" d="M1146.86 -513.647H1143.32V901.647H1146.86V-513.647Z" fill="white" fill-opacity="0.5"/>
<path opacity="0.2" d="M1217.63 -513.647H1214.09V901.647H1217.63V-513.647Z" fill="white" fill-opacity="0.5"/>
<path opacity="0.2" d="M1288.39 -513.647H1284.85V901.647H1288.39V-513.647Z" fill="white" fill-opacity="0.5"/>
<path opacity="0.2" d="M1359.15 -513.647H1355.61V901.647H1359.15V-513.647Z" fill="white" fill-opacity="0.5"/>
<path opacity="0.5" d="M1428.15 -511.882H1424.62V899.882H1428.15V-511.882Z" fill="white" fill-opacity="0.5"/>
<path opacity="0.2" d="M1428.15 50.7021H12.8529V54.2421H1428.15V50.7021Z" fill="white" fill-opacity="0.5"/>
<path opacity="0.2" d="M1428.15 121.467H12.8529V125.007H1428.15V121.467Z" fill="white" fill-opacity="0.5"/>
<path opacity="0.5" d="M1428.15 192.232H12.8529V195.772H1428.15V192.232Z" fill="white" fill-opacity="0.5"/>
<path opacity="0.2" d="M1428.15 262.997H12.8529V266.533H1428.15V262.997Z" fill="white" fill-opacity="0.5"/>
<path opacity="0.2" d="M1428.15 333.762H12.8529V337.302H1428.15V333.762Z" fill="white" fill-opacity="0.5"/>
<path opacity="0.2" d="M1428.15 404.522H12.8529V408.062H1428.15V404.522Z" fill="white" fill-opacity="0.5"/>
<path opacity="0.2" d="M1428.15 475.291H12.8529V478.827H1428.15V475.291Z" fill="white" fill-opacity="0.5"/>
<path opacity="0.5" d="M1428.15 546.055H12.8529V549.592H1428.15V546.055Z" fill="white" fill-opacity="0.5"/>
<path opacity="0.2" d="M1428.15 616.82H12.8529V620.357H1428.15V616.82Z" fill="white" fill-opacity="0.5"/>
<path opacity="0.2" d="M1428.15 687.585H12.8529V691.125H1428.15V687.585Z" fill="white" fill-opacity="0.5"/>
<path opacity="0.2" d="M1428.15 758.346H12.8529V761.886H1428.15V758.346Z" fill="white" fill-opacity="0.5"/>
<path opacity="0.2" d="M1428.15 829.114H12.8529V832.65H1428.15V829.114Z" fill="white" fill-opacity="0.5"/>
<path opacity="0.5" d="M1426.38 898.118H14.6177V901.647H1426.38V898.118Z" fill="white" fill-opacity="0.5"/>
<path d="M16.3823 181.647H12.8529V206.353H16.3823V181.647Z" fill="white" fill-opacity="0.5"/>
<path d="M26.9705 192.235H2.26465V195.765H26.9705V192.235Z" fill="white" fill-opacity="0.5"/>
<path d="M1428.15 181.647H1424.62V206.353H1428.15V181.647Z" fill="white" fill-opacity="0.5"/>
<path d="M1438.74 192.235H1414.03V195.765H1438.74V192.235Z" fill="white" fill-opacity="0.5"/>
<path d="M16.3823 534.588H12.8529V559.294H16.3823V534.588Z" fill="white" fill-opacity="0.5"/>
<path d="M26.9705 545.177H2.26465V548.706H26.9705V545.177Z" fill="white" fill-opacity="0.5"/>
<path d="M1428.15 534.588H1424.62V559.294H1428.15V534.588Z" fill="white" fill-opacity="0.5"/>
<path d="M1438.74 545.177H1414.03V548.706H1438.74V545.177Z" fill="white" fill-opacity="0.5"/>
<path d="M16.3823 887.529H12.8529V912.235H16.3823V887.529Z" fill="white" fill-opacity="0.5"/>
<path d="M26.9705 898.117H2.26465V901.647H26.9705V898.117Z" fill="white" fill-opacity="0.5"/>
<path d="M369.324 181.647H365.794V206.353H369.324V181.647Z" fill="white" fill-opacity="0.5"/>
<path d="M379.912 192.235H355.206V195.765H379.912V192.235Z" fill="white" fill-opacity="0.5"/>
<path d="M369.324 534.588H365.794V559.294H369.324V534.588Z" fill="white" fill-opacity="0.5"/>
<path d="M379.912 545.177H355.206V548.706H379.912V545.177Z" fill="white" fill-opacity="0.5"/>
<path d="M369.324 887.529H365.794V912.235H369.324V887.529Z" fill="white" fill-opacity="0.5"/>
<path d="M379.912 898.117H355.206V901.647H379.912V898.117Z" fill="white" fill-opacity="0.5"/>
<path d="M722.265 181.647H718.735V206.353H722.265V181.647Z" fill="white" fill-opacity="0.5"/>
<path d="M732.853 192.235H708.147V195.765H732.853V192.235Z" fill="white" fill-opacity="0.5"/>
<path d="M722.265 534.588H718.735V559.294H722.265V534.588Z" fill="white" fill-opacity="0.5"/>
<path d="M732.853 545.177H708.147V548.706H732.853V545.177Z" fill="white" fill-opacity="0.5"/>
<path d="M722.265 887.529H718.735V912.235H722.265V887.529Z" fill="white" fill-opacity="0.5"/>
<path d="M732.853 898.117H708.147V901.647H732.853V898.117Z" fill="white" fill-opacity="0.5"/>
<path d="M1075.21 181.647H1071.68V206.353H1075.21V181.647Z" fill="white" fill-opacity="0.5"/>
<path d="M1085.79 192.235H1061.09V195.765H1085.79V192.235Z" fill="white" fill-opacity="0.5"/>
<path d="M1075.21 534.588H1071.68V559.294H1075.21V534.588Z" fill="white" fill-opacity="0.5"/>
<path d="M1085.79 545.177H1061.09V548.706H1085.79V545.177Z" fill="white" fill-opacity="0.5"/>
<path d="M1075.21 887.529H1071.68V912.235H1075.21V887.529Z" fill="white" fill-opacity="0.5"/>
<path d="M1085.79 898.117H1061.09V901.647H1085.79V898.117Z" fill="white" fill-opacity="0.5"/>
<path d="M1428.15 887.529H1424.62V912.235H1428.15V887.529Z" fill="white" fill-opacity="0.5"/>
<path d="M1438.74 898.117H1414.03V901.647H1438.74V898.117Z" fill="white" fill-opacity="0.5"/>
<path d="M192.853 15.7646H189.324V19.2941H192.853V15.7646Z" fill="white" fill-opacity="0.5"/>
<path d="M545.794 15.7646H542.265V19.2941H545.794V15.7646Z" fill="white" fill-opacity="0.5"/>
<path d="M898.735 15.7646H895.206V19.2941H898.735V15.7646Z" fill="white" fill-opacity="0.5"/>
<path d="M1251.68 15.7646H1248.15V19.2941H1251.68V15.7646Z" fill="white" fill-opacity="0.5"/>
<path d="M192.853 368.706H189.324V372.235H192.853V368.706Z" fill="white" fill-opacity="0.5"/>
<path d="M545.794 368.706H542.265V372.235H545.794V368.706Z" fill="white" fill-opacity="0.5"/>
<path d="M898.735 368.706H895.206V372.235H898.735V368.706Z" fill="white" fill-opacity="0.5"/>
<path d="M1251.68 368.706H1248.15V372.235H1251.68V368.706Z" fill="white" fill-opacity="0.5"/>
<path d="M192.853 721.647H189.324V725.176H192.853V721.647Z" fill="white" fill-opacity="0.5"/>
<path d="M545.794 721.647H542.265V725.176H545.794V721.647Z" fill="white" fill-opacity="0.5"/>
<path d="M898.735 721.647H895.206V725.176H898.735V721.647Z" fill="white" fill-opacity="0.5"/>
<path d="M1251.68 721.647H1248.15V725.176H1251.68V721.647Z" fill="white" fill-opacity="0.5"/>
</g>
</svg>
