<svg width="25" height="24" viewBox="0 0 25 24" fill="none" xmlns="http://www.w3.org/2000/svg">
<path d="M16.9343 5.95594L16.3493 2.73281C16.2867 2.38702 16.1047 2.07418 15.835 1.84887C15.5654 1.62356 15.2251 1.50009 14.8737 1.5H10.1262C9.7748 1.50009 9.43457 1.62356 9.16489 1.84887C8.8952 2.07418 8.71319 2.38702 8.65059 2.73281L8.06559 5.95594C7.11547 6.65151 6.34272 7.56127 5.81004 8.61141C5.27736 9.66155 4.99976 10.8225 4.99976 12C4.99976 13.1775 5.27736 14.3384 5.81004 15.3886C6.34272 16.4387 7.11547 17.3485 8.06559 18.0441L8.65059 21.2672C8.71319 21.613 8.8952 21.9258 9.16489 22.1511C9.43457 22.3764 9.7748 22.4999 10.1262 22.5H14.8737C15.2251 22.4999 15.5654 22.3764 15.835 22.1511C16.1047 21.9258 16.2867 21.613 16.3493 21.2672L16.9343 18.0441C17.8845 17.3485 18.6572 16.4387 19.1899 15.3886C19.7226 14.3384 20.0002 13.1775 20.0002 12C20.0002 10.8225 19.7226 9.66155 19.1899 8.61141C18.6572 7.56127 17.8845 6.65151 16.9343 5.95594ZM10.1262 3H14.8737L15.2403 5.02031C13.4793 4.32659 11.5207 4.32659 9.75965 5.02031L10.1262 3ZM14.8737 21H10.1262L9.75965 18.9797C11.5207 19.6734 13.4793 19.6734 15.2403 18.9797L14.8737 21ZM16.25 12.75H12.5C12.3011 12.75 12.1103 12.671 11.9696 12.5303C11.829 12.3897 11.75 12.1989 11.75 12V8.25C11.75 8.05109 11.829 7.86032 11.9696 7.71967C12.1103 7.57902 12.3011 7.5 12.5 7.5C12.6989 7.5 12.8896 7.57902 13.0303 7.71967C13.1709 7.86032 13.25 8.05109 13.25 8.25V11.25H16.25C16.4489 11.25 16.6396 11.329 16.7803 11.4697C16.9209 11.6103 17 11.8011 17 12C17 12.1989 16.9209 12.3897 16.7803 12.5303C16.6396 12.671 16.4489 12.75 16.25 12.75Z" fill="#B28DFF"/>
</svg>
