<svg width="1163" height="36" viewBox="0 0 1163 36" fill="none" xmlns="http://www.w3.org/2000/svg">
<g clip-path="url(#clip0_407_299)">
<path d="M54.0637 4.50513H37.5655H38.2174V9.00291H43.7722V28.3572H48.4749V9.00291H54.0637V4.50513Z" fill="#666D80"/>
<path d="M58.5618 14.2504V11.32H54.1659V28.3572H58.5618V20.2134C58.5618 16.6356 61.4584 15.6133 63.7416 15.8859V10.9792C61.5949 10.9792 59.4479 11.9333 58.5618 14.2504Z" fill="#666D80"/>
<path d="M68.4449 9.27547C69.9441 9.27547 71.1712 8.04881 71.1712 6.58361C71.1712 5.11841 69.9441 3.85767 68.4449 3.85767C66.9794 3.85767 65.7526 5.11841 65.7526 6.58361C65.7526 8.04881 66.9794 9.27547 68.4449 9.27547ZM66.2638 28.3571H70.66V11.3199H66.2638V28.3571Z" fill="#666D80"/>
<path d="M87.3584 11.32V13.4326C86.1657 11.8311 84.3256 10.843 81.9058 10.843C77.0669 10.843 73.4203 14.7956 73.4203 19.566C73.4203 24.3705 77.0669 28.2891 81.9058 28.2891C84.3256 28.2891 86.1657 27.3009 87.3584 25.6994V27.5394C87.3584 30.2312 85.6545 31.7304 82.8942 31.7304C80.27 31.7304 79.1457 30.6743 78.4299 29.3453L74.6815 31.492C76.1807 34.2521 79.1114 35.6489 82.7579 35.6489C87.2563 35.6489 91.6521 33.1275 91.6521 27.5394V11.32H87.3584ZM82.5876 24.2342C79.8272 24.2342 77.8165 22.2919 77.8165 19.566C77.8165 16.8741 79.8272 14.9319 82.5876 14.9319C85.3477 14.9319 87.3584 16.8741 87.3584 19.566C87.3584 22.2919 85.3477 24.2342 82.5876 24.2342Z" fill="#666D80"/>
<path d="M108.317 11.32V13.4326C107.124 11.8311 105.284 10.843 102.864 10.843C98.0252 10.843 94.3787 14.7956 94.3787 19.566C94.3787 24.3705 98.0252 28.2891 102.864 28.2891C105.284 28.2891 107.124 27.3009 108.317 25.6994V27.5394C108.317 30.2312 106.613 31.7304 103.853 31.7304C101.228 31.7304 100.104 30.6743 99.3883 29.3453L95.6396 31.492C97.1391 34.2521 100.07 35.6489 103.716 35.6489C108.214 35.6489 112.611 33.1275 112.611 27.5394V11.32H108.317ZM103.546 24.2342C100.785 24.2342 98.7749 22.2919 98.7749 19.566C98.7749 16.8741 100.785 14.9319 103.546 14.9319C106.306 14.9319 108.317 16.8741 108.317 19.566C108.317 22.2919 106.306 24.2342 103.546 24.2342Z" fill="#666D80"/>
<path d="M119.938 21.6445H132.785C132.887 21.0653 132.955 20.486 132.955 19.8386C132.955 14.8297 129.377 10.843 124.334 10.843C118.983 10.843 115.337 14.7615 115.337 19.8386C115.337 24.9157 118.949 28.8341 124.674 28.8341C127.946 28.8341 130.502 27.5053 132.103 25.1882L128.559 23.1438C127.81 24.1319 126.446 24.8475 124.743 24.8475C122.425 24.8475 120.551 23.8934 119.938 21.6445ZM119.869 18.2371C120.381 16.0564 121.982 14.7956 124.334 14.7956C126.174 14.7956 128.014 15.7838 128.559 18.2371H119.869Z" fill="#666D80"/>
<path d="M139.959 14.2504V11.32H135.563V28.3572H139.959V20.2134C139.959 16.6356 142.856 15.6133 145.139 15.8859V10.9792C142.992 10.9792 140.845 11.9333 139.959 14.2504Z" fill="#666D80"/>
<path d="M146.809 28.7999C148.41 28.7999 149.705 27.5051 149.705 25.9036C149.705 24.3021 148.41 23.0073 146.809 23.0073C145.207 23.0073 143.912 24.3021 143.912 25.9036C143.912 27.5051 145.207 28.7999 146.809 28.7999Z" fill="#666D80"/>
<path d="M165.279 4.50513V13.3303C164.052 11.7629 162.246 10.8429 159.758 10.8429C155.192 10.8429 151.443 14.7615 151.443 19.8385C151.443 24.9156 155.192 28.834 159.758 28.834C162.246 28.834 164.052 27.9141 165.279 26.3467V28.3572H169.675V4.50513H165.279ZM160.576 24.643C157.85 24.643 155.839 22.7008 155.839 19.8385C155.839 16.9763 157.85 15.034 160.576 15.034C163.268 15.034 165.279 16.9763 165.279 19.8385C165.279 22.7008 163.268 24.643 160.576 24.643Z" fill="#666D80"/>
<path d="M176.729 21.6445H189.576C189.678 21.0653 189.747 20.486 189.747 19.8386C189.747 14.8297 186.168 10.843 181.125 10.843C175.775 10.843 172.128 14.7615 172.128 19.8386C172.128 24.9157 175.741 28.8341 181.466 28.8341C184.737 28.8341 187.293 27.5053 188.895 25.1882L185.351 23.1438C184.601 24.1319 183.238 24.8475 181.534 24.8475C179.217 24.8475 177.342 23.8934 176.729 21.6445ZM176.661 18.2371C177.172 16.0564 178.774 14.7956 181.125 14.7956C182.965 14.7956 184.805 15.7838 185.351 18.2371H176.661Z" fill="#666D80"/>
<path d="M203.003 11.3201L198.846 23.246L194.722 11.3201H189.883L196.358 28.3573H201.367L207.842 11.3201H203.003Z" fill="#666D80"/>
<path fill-rule="evenodd" clip-rule="evenodd" d="M9.93384 11.7404L16.51 0.351562L32.8077 28.577H0.212402L6.7886 17.1879L11.4405 19.8734L9.51651 23.2056H23.5035L16.51 11.0941L14.5861 14.4263L9.93384 11.7404Z" fill="#666D80"/>
</g>
<g clip-path="url(#clip1_407_299)">
<path d="M268.85 19.5973C268.637 19.8106 268.384 19.9798 268.105 20.0951C267.827 20.2104 267.528 20.2696 267.227 20.2694H261.744C261.288 20.2681 260.851 20.086 260.529 19.7628C260.207 19.4397 260.026 19.0018 260.027 18.5456V1.71733C260.028 1.26229 260.209 0.826209 260.531 0.504441C260.853 0.182673 261.289 0.00139616 261.744 0.000244141H271.796C272.251 0.00139616 272.687 0.182673 273.008 0.504441C273.33 0.826209 273.511 1.26229 273.513 1.71733V13.9857C273.512 14.5927 273.272 15.1749 272.843 15.6046L270.844 17.601L268.85 19.5973Z" fill="#666D80"/>
<path d="M276.172 8.82352C275.959 8.6103 275.791 8.35716 275.676 8.07861C275.561 7.80006 275.502 7.50158 275.502 7.20024V1.71733C275.504 1.26229 275.685 0.826209 276.007 0.504441C276.328 0.182673 276.764 0.00139616 277.219 0.000244141H294.063C294.519 0.000244141 294.955 0.181151 295.277 0.503169C295.599 0.825185 295.78 1.26193 295.78 1.71733V11.769C295.78 11.9944 295.736 12.2177 295.65 12.4261C295.563 12.6344 295.437 12.8237 295.277 12.9831C295.118 13.1426 294.929 13.2691 294.72 13.3553C294.512 13.4416 294.289 13.4861 294.063 13.4861H281.786C281.485 13.4864 281.187 13.4273 280.909 13.3125C280.631 13.1975 280.378 13.0289 280.165 12.8162L276.172 8.82352Z" fill="#666D80"/>
<path d="M286.948 16.2483C287.378 15.8185 287.96 15.5768 288.567 15.5762H294.063C294.519 15.5768 294.955 15.7579 295.278 16.0796C295.6 16.4015 295.781 16.8379 295.782 17.2933V34.1261C295.782 34.5818 295.601 35.0188 295.278 35.3411C294.956 35.6634 294.519 35.8448 294.063 35.8453H284.003C283.547 35.8448 283.11 35.6634 282.788 35.3411C282.465 35.0188 282.284 34.5818 282.284 34.1261V21.8578C282.284 21.2504 282.526 20.668 282.956 20.2388L286.948 16.2483Z" fill="#666D80"/>
<path d="M279.624 27.0221C280.054 27.4513 280.295 28.0336 280.296 28.6409V34.1282C280.295 34.5844 280.113 35.0215 279.789 35.3435C279.466 35.6653 279.028 35.8459 278.572 35.8453H261.744C261.289 35.8441 260.853 35.6629 260.531 35.3411C260.209 35.0194 260.028 34.5833 260.027 34.1282V24.0766C260.027 23.6212 260.208 23.1845 260.53 22.8624C260.852 22.5404 261.288 22.3595 261.744 22.3595H274.012C274.313 22.3591 274.611 22.4181 274.888 22.533C275.166 22.648 275.419 22.8166 275.631 23.0293L279.624 27.0221Z" fill="#666D80"/>
<path d="M352.477 26.9783H352.466C352.235 27.1463 352.03 27.2815 351.884 27.382C351.759 27.4612 351.63 27.534 351.497 27.6001C351.408 27.6479 351.31 27.6797 351.209 27.694C351.103 27.7067 350.996 27.7125 350.889 27.7114C350.683 27.7258 350.479 27.6728 350.306 27.5606C350.133 27.4485 350.001 27.2831 349.931 27.0896C349.759 26.6729 349.673 25.8852 349.673 24.7485V19.4576C349.688 18.7275 349.639 17.9974 349.527 17.2758C349.432 16.7765 349.249 16.298 348.988 15.862C348.116 14.4831 346.416 13.7849 343.916 13.7849C342.083 13.7849 340.61 14.0969 339.552 14.71C338.494 15.323 337.937 16.1826 337.937 17.2626C337.927 17.5129 337.966 17.7627 338.053 17.9976C338.14 18.2325 338.273 18.4477 338.444 18.6306C338.61 18.8025 338.811 18.9376 339.033 19.0274C339.255 19.1172 339.494 19.1597 339.733 19.1522C339.983 19.1623 340.233 19.123 340.467 19.0365C340.702 18.95 340.917 18.818 341.101 18.6482C341.273 18.4812 341.408 18.2803 341.498 18.0583C341.587 17.8364 341.63 17.598 341.623 17.3587C341.63 17.1533 341.596 16.9484 341.521 16.7568C341.447 16.5651 341.334 16.3905 341.191 16.2437C341.072 16.132 340.959 16.014 340.852 15.8903C340.823 15.8563 340.807 15.8129 340.807 15.7682C340.811 15.6966 340.833 15.6271 340.868 15.5648C340.904 15.5024 340.953 15.4489 341.012 15.4082C341.176 15.2737 341.36 15.1649 341.557 15.0852C341.807 14.9848 342.066 14.9117 342.332 14.867C342.624 14.8127 342.922 14.7857 343.22 14.7863C344.695 14.7863 345.692 15.2227 346.182 16.1063C346.287 16.2912 346.374 16.4855 346.442 16.6866C346.513 16.9127 346.567 17.1439 346.604 17.3783C346.645 17.6467 346.678 17.974 346.7 18.382C346.721 18.7899 346.743 19.2939 346.763 19.8416L343.734 20.3892L342.504 20.5834C341.887 20.6947 341.378 20.8015 340.951 20.8911C340.564 20.9744 340.185 21.0883 339.816 21.2314C339.518 21.3476 339.231 21.4885 338.956 21.6525C338.701 21.8092 338.457 21.9827 338.225 22.1718C337.449 22.8853 337.056 23.8889 337.056 25.1609C337.056 26.518 337.455 27.6045 338.243 28.39C339.031 29.1754 340.121 29.5746 341.483 29.5746C342.438 29.5863 343.382 29.3614 344.23 28.9201C345.189 28.3639 346.046 27.6473 346.763 26.8016C346.837 27.1497 346.932 27.4929 347.049 27.8292C347.142 28.0612 347.263 28.2809 347.409 28.4837C347.624 28.7861 347.909 29.0323 348.24 29.2016C348.558 29.3692 348.911 29.4583 349.27 29.4612C349.868 29.4574 350.455 29.3004 350.976 29.0053C351.67 28.5932 352.308 28.0922 352.872 27.5151L352.477 26.987V26.9783ZM346.804 20.8693V23.3761C346.804 24.4888 346.632 25.3398 346.289 25.9267C345.959 26.4947 345.478 26.9606 344.9 27.2729C344.319 27.5996 343.664 27.7716 342.997 27.7725C342.609 27.7899 342.221 27.7275 341.859 27.589C341.496 27.4505 341.165 27.2389 340.887 26.9674C340.619 26.6784 340.41 26.3387 340.275 25.9681C340.139 25.5976 340.079 25.2037 340.097 24.8096C340.097 23.3979 340.752 22.4336 342.031 21.9405C342.609 21.7229 343.203 21.5522 343.809 21.43C344.553 21.2685 345.554 21.0786 346.796 20.867L346.804 20.8693Z" fill="#666D80"/>
<path d="M363.637 27.2076H363.624C363.185 27.382 362.737 27.5327 362.282 27.6593C361.972 27.7433 361.652 27.7873 361.331 27.7901C360.53 27.7901 359.921 27.5479 359.522 27.0724C359.123 26.5967 358.918 25.8702 358.918 24.9145V15.7749H363.417V14.7123H358.918V8.69922H358.22L356.112 10.8069V14.7123H352.451V15.7749H356.108V26.0294C356.108 27.2076 356.38 28.1022 356.919 28.6912C357.458 29.2803 358.278 29.5792 359.356 29.5792C360.084 29.5759 360.807 29.4559 361.497 29.2236C362.368 28.9106 363.204 28.5084 363.993 28.0235H364.004L363.641 27.2338L363.637 27.2076Z" fill="#666D80"/>
<path d="M382.8 12.1814C383.059 12.1895 383.317 12.1445 383.557 12.0492C383.798 11.9538 384.018 11.8102 384.201 11.6272C384.473 11.358 384.659 11.0138 384.734 10.6386C384.81 10.2633 384.771 9.87414 384.624 9.5207C384.478 9.16726 384.229 8.86565 383.91 8.6544C383.59 8.44315 383.215 8.33187 382.833 8.33478C382.582 8.33268 382.332 8.38059 382.101 8.47575C381.868 8.5709 381.657 8.71137 381.48 8.88896C381.295 9.05925 381.149 9.26616 381.049 9.49646C380.949 9.72676 380.898 9.97537 380.899 10.2264C380.895 10.4826 380.942 10.7371 381.037 10.975C381.132 11.2129 381.274 11.4294 381.454 11.6119C381.626 11.7955 381.835 11.9411 382.067 12.0392C382.299 12.1373 382.548 12.1856 382.8 12.1814Z" fill="#666D80"/>
<path d="M413.688 25.5864C413.293 26.0062 412.874 26.4004 412.429 26.7667C412.072 27.0587 411.681 27.3076 411.266 27.5086C410.881 27.6907 410.474 27.8213 410.056 27.8969C409.58 27.9757 409.099 28.0129 408.617 28.0082C406.798 28.0082 405.419 27.3929 404.52 26.1798C404.126 25.6246 403.846 24.9964 403.697 24.3318C403.514 23.398 403.432 22.447 403.455 21.4954H414.936V21.4803C414.914 20.5727 414.817 19.6684 414.646 18.777C414.506 18.1114 414.265 17.4713 413.932 16.8788C413.362 15.8799 412.503 15.0774 411.467 14.5769C410.316 14.0216 409.049 13.7436 407.771 13.7653C406.698 13.7494 405.631 13.9366 404.627 14.3173C403.736 14.6597 402.928 15.1904 402.259 15.8729C401.588 16.5841 401.075 17.4296 400.754 18.3537C400.383 19.3954 400.2 20.4944 400.211 21.6002C400.2 22.718 400.384 23.8291 400.754 24.8838C401.079 25.8158 401.592 26.6712 402.262 27.3973C402.925 28.0973 403.733 28.6446 404.629 29.001C405.62 29.39 406.676 29.5826 407.74 29.5682C408.383 29.5725 409.024 29.5117 409.654 29.3871C410.232 29.2665 410.794 29.0714 411.322 28.8067C411.877 28.5257 412.399 28.1847 412.878 27.79C413.435 27.3277 413.95 26.8166 414.416 26.2627V26.2518L413.694 25.5973L413.688 25.5864ZM407.668 14.7799C409.016 14.7799 410.014 15.2163 410.635 16.0759C411.257 16.9355 411.645 18.4061 411.796 20.4395H403.477C403.628 18.3973 404.029 16.9267 404.67 16.0759C405.312 15.2249 406.32 14.7799 407.668 14.7799Z" fill="#666D80"/>
<path d="M332.666 27.9078C332.403 27.8299 332.176 27.6604 332.027 27.43C331.87 27.1482 331.777 26.8355 331.754 26.5137C331.704 25.9879 331.682 25.46 331.689 24.9319V6.27515L326.042 7.6366H326.031V8.68824H326.044C326.512 8.6988 326.977 8.75803 327.432 8.86496C327.759 8.9401 328.056 9.1128 328.283 9.36023C328.508 9.64875 328.652 9.99226 328.7 10.3551C328.784 10.8993 328.822 11.4497 328.813 12.0002V24.9407C328.813 25.5799 328.798 26.1057 328.765 26.5071C328.753 26.8349 328.659 27.1544 328.492 27.4366C328.334 27.6656 328.104 27.8347 327.838 27.9166C327.452 28.0354 327.058 28.1272 326.66 28.1916L325.87 28.2569V29.2366H334.645V28.2417L333.857 28.174C333.455 28.1128 333.057 28.0239 332.666 27.9078Z" fill="#666D80"/>
<path d="M385.743 27.9078C385.48 27.8291 385.254 27.6598 385.104 27.43C384.948 27.1477 384.855 26.8352 384.831 26.5136C384.781 25.9879 384.759 25.4599 384.766 24.9318V13.3682L379.119 14.7165H379.108V15.7681H379.122C379.588 15.7772 380.054 15.8357 380.509 15.9427C380.836 16.0186 381.133 16.192 381.36 16.4402C381.583 16.7283 381.726 17.0711 381.772 17.4329C381.856 17.9771 381.895 18.5274 381.886 19.078V24.9318C381.886 25.571 381.871 26.0991 381.837 26.4984C381.826 26.8261 381.733 27.1456 381.565 27.4277C381.408 27.6574 381.177 27.8266 380.91 27.9078C380.524 28.0266 380.131 28.1184 379.732 28.1827L378.955 28.246H378.936V29.2365H387.703V28.2416L386.914 28.174C386.518 28.1119 386.127 28.023 385.743 27.9078Z" fill="#666D80"/>
<path d="M396.713 27.9078C396.45 27.8299 396.224 27.6604 396.074 27.43C395.917 27.1485 395.822 26.8356 395.8 26.5137C395.751 25.9878 395.73 25.4598 395.736 24.9319V6.27515L390.089 7.6366V8.68824H390.103C390.57 8.69903 391.035 8.75825 391.49 8.86496C391.817 8.93946 392.113 9.11231 392.339 9.36023C392.564 9.64857 392.709 9.99208 392.758 10.3551C392.841 10.8994 392.879 11.4497 392.871 12.0002V24.9407C392.871 25.5799 392.853 26.1078 392.821 26.5071C392.811 26.8351 392.717 27.1551 392.549 27.4366C392.391 27.6661 392.16 27.8353 391.894 27.9166C391.508 28.0349 391.114 28.1268 390.716 28.1916L389.939 28.2548H389.926V29.2366H398.69V28.2417L397.902 28.174C397.501 28.1128 397.104 28.0239 396.713 27.9078Z" fill="#666D80"/>
<path d="M376.734 7.55364C376.08 7.0911 375.236 6.85547 374.202 6.85547C372.653 6.85547 371.402 7.35947 370.492 8.35437C369.583 9.34929 369.118 10.7216 369.118 12.4366C369.118 12.6089 369.118 13.4599 369.133 13.7762C369.148 14.0926 369.17 14.398 369.212 14.7209H366.227V15.7748H369.17V24.9383C369.17 25.5929 369.155 26.11 369.122 26.507C369.111 26.8355 369.017 27.1559 368.849 27.4388C368.692 27.6683 368.461 27.8376 368.195 27.9187C367.81 28.0373 367.417 28.1292 367.019 28.1936L366.242 28.2569H366.229V29.2365H375.227V28.2394L374.212 28.174C373.814 28.1095 373.42 28.0176 373.034 27.8991C372.768 27.8179 372.537 27.6487 372.38 27.4191C372.212 27.1366 372.118 26.8161 372.107 26.4875C372.074 26.0926 372.059 25.5645 372.059 24.9188V15.7748H376.1V14.7122H372.044C371.712 13.7934 371.475 12.8429 371.337 11.8759C371.219 11.1445 371.235 10.398 371.383 9.6722C371.564 8.93037 371.945 8.41546 372.519 8.14492L372.582 8.11874L372.616 8.10783L372.648 8.09474L372.67 8.08383L372.746 8.06201C373.005 7.96617 373.278 7.9174 373.554 7.91801C373.835 7.9148 374.114 7.96977 374.374 8.07947C374.616 8.1842 374.739 8.29765 374.739 8.39147C374.739 8.45037 374.672 8.54638 374.546 8.67074C374.38 8.83155 374.248 9.02451 374.158 9.23793C374.068 9.45133 374.023 9.68073 374.024 9.9122C374.015 10.1381 374.053 10.3635 374.138 10.5731C374.223 10.7828 374.352 10.9718 374.516 11.1275C374.852 11.4367 375.298 11.6012 375.754 11.5856C376.02 11.5912 376.282 11.5387 376.524 11.4316C376.766 11.3245 376.982 11.1656 377.155 10.966C377.532 10.5336 377.73 9.97448 377.71 9.40165C377.715 9.03662 377.629 8.67617 377.458 8.3533C377.288 8.03044 377.039 7.75549 376.734 7.55364Z" fill="#666D80"/>
<path d="M307.721 7.63647V8.69903L308.9 8.82993C309.772 8.91503 310.37 9.14193 310.669 9.50411C310.75 9.60008 310.822 9.70221 310.887 9.80957C310.949 9.93979 310.987 10.0803 310.998 10.2241C311.02 10.4052 311.036 10.6343 311.046 10.9027C311.057 11.171 311.062 11.5353 311.062 11.9936V24.8946C311.062 25.3463 311.062 25.7107 311.046 25.9855C311.031 26.2605 311.02 26.483 310.998 26.6641C310.986 26.815 310.948 26.9627 310.885 27.1005C310.832 27.2069 310.762 27.3042 310.678 27.3885C310.379 27.7506 309.783 27.9776 308.908 28.0626L307.741 28.1936H307.73V29.2364H318.017V28.174L316.514 28.043C315.659 27.9798 315.063 27.7529 314.745 27.3688C314.661 27.2874 314.596 27.1893 314.553 27.0808C314.5 26.9397 314.462 26.7935 314.439 26.6444C314.404 26.4206 314.383 26.1947 314.376 25.9681C314.365 25.7107 314.361 25.3551 314.361 24.8772V19.8896H317.173C317.448 19.8945 317.723 19.923 317.993 19.9746C318.275 20.0306 318.539 20.1516 318.766 20.3281C318.996 20.5203 319.186 20.7552 319.326 21.0198C319.511 21.3666 319.657 21.7323 319.763 22.1107L320.025 23.0139H321.307V15.3427H320.027L319.82 16.2153C319.698 16.6215 319.548 17.0187 319.372 17.4045C319.244 17.6832 319.064 17.9345 318.84 18.1442C318.638 18.3256 318.397 18.4578 318.135 18.5303C317.941 18.5794 317.742 18.6101 317.542 18.6219H314.354V8.98484H317.889C318.755 8.97211 319.62 9.03195 320.476 9.16375C321.048 9.23761 321.59 9.46365 322.045 9.8183C322.435 10.1757 322.707 10.6428 322.826 11.1579C322.995 11.8735 323.087 12.6048 323.103 13.3397V13.3529H324.358V7.63647H307.721Z" fill="#666D80"/>
</g>
<g clip-path="url(#clip2_407_299)">
<path d="M525.563 20.9132L526.599 25.703H526.68L527.837 20.9536L531.193 7.82202H535.266L529.837 27.7793H523.288L520.574 15.7647L519.574 10.9749H519.494L518.457 15.7647L515.743 27.7793H509.355L503.927 7.82202H508.117L511.432 20.9132L512.589 25.6627H512.67L513.706 20.8729L516.699 7.82202H522.526L525.559 20.9132H525.563Z" fill="#666D80"/>
<path d="M537.661 4.31029V0.000244141H542.013V4.31029H537.661ZM537.822 27.7793H541.895V7.82203H537.822V27.7793Z" fill="#666D80"/>
<path d="M546.206 7.822H550.199V11.4143C551.517 9.14028 553.473 7.42285 556.587 7.42285C560.499 7.42285 563.414 10.1363 563.414 15.0872V27.7793H559.341V15.4057C559.341 12.4506 557.744 10.8944 555.07 10.8944C552.397 10.8944 550.279 12.5312 550.279 16.4018V27.7756H546.206V7.822Z" fill="#666D80"/>
<path d="M567.366 29.1745H571.399C571.637 31.3716 573.435 32.7668 576.549 32.7668C579.981 32.7668 581.9 31.0896 581.9 27.3398V23.8684C580.465 26.3035 578.307 27.6584 575.391 27.6584C570.56 27.6584 566.81 24.0258 566.81 17.559C566.81 11.0921 570.564 7.42285 575.391 7.42285C578.307 7.42285 580.501 8.8217 581.941 11.2935V7.822H585.974V27.0981C585.974 32.7668 582.461 36.0002 576.472 36.0002C571.084 36.0002 567.769 33.3673 567.37 29.1745H567.366ZM576.468 24.2675C579.901 24.2675 581.896 21.9532 581.896 18.3609V16.7644C581.896 13.0914 579.901 10.7368 576.468 10.7368C573.037 10.7368 571 12.9706 571 17.0427V18.079C571 22.0704 573.117 24.2639 576.468 24.2639V24.2675Z" fill="#666D80"/>
<path d="M491.818 7.82202C490.144 7.82202 488.668 8.70087 487.433 10.4403C486.162 12.2383 485.236 14.7943 484.342 17.266C484.042 18.0936 483.741 18.9286 483.426 19.7304C483.111 18.9248 482.807 18.0899 482.507 17.2587C481.613 14.7869 480.69 12.2309 479.419 10.433C478.185 8.69721 476.709 7.8147 475.035 7.8147H467.277V10.7039C467.738 10.7039 468.456 10.8504 469.357 12.1248C470.401 13.6005 471.258 15.9661 472.086 18.262C472.866 20.4153 473.668 22.6453 474.705 24.359C476.06 26.6111 477.65 27.7024 479.562 27.7024C481.305 27.7024 482.569 26.743 483.426 25.7543C484.283 26.743 485.547 27.7024 487.29 27.7024C489.202 27.7024 490.788 26.6075 492.147 24.359C493.18 22.6453 493.986 20.4153 494.766 18.2548C495.594 15.9661 496.447 13.6005 497.491 12.1248C498.396 10.8504 499.114 10.7039 499.575 10.7039V7.81104H491.818V7.82202ZM479.562 24.8241C477.481 24.8241 476.031 20.8108 474.749 17.266C473.899 14.9187 473.024 12.4909 471.844 10.7149H475.031C475.493 10.7149 476.21 10.8613 477.115 12.1357C478.159 13.6115 479.016 15.9771 479.844 18.2693C480.448 19.9466 481.075 21.6712 481.807 23.1617C480.84 24.6374 480.075 24.8241 479.562 24.8241ZM492.1 17.2734C490.821 20.8144 489.371 24.8241 487.29 24.8241C486.778 24.8241 486.012 24.6374 485.045 23.1617C485.778 21.6712 486.4 19.9466 487.008 18.2657C487.836 15.9771 488.69 13.6115 489.733 12.1357C490.638 10.8613 491.356 10.7149 491.818 10.7149H495.004C493.828 12.4909 492.949 14.9187 492.1 17.2734Z" fill="#666D80"/>
</g>
<path d="M769.244 23.8453C769.244 24.828 769.011 25.6599 768.545 26.3409C768.088 27.0134 767.403 27.5263 766.489 27.8797C765.575 28.2246 764.438 28.397 763.075 28.397C762.067 28.397 761.2 28.3323 760.476 28.203C759.761 28.0737 759.037 27.8582 758.304 27.5565V24.2978C759.088 24.6513 759.929 24.9444 760.825 25.1772C761.731 25.4013 762.524 25.5134 763.205 25.5134C763.972 25.5134 764.519 25.4013 764.847 25.1772C765.183 24.9444 765.351 24.6427 765.351 24.272C765.351 24.0306 765.282 23.8151 765.144 23.6254C765.015 23.4272 764.731 23.2073 764.291 22.9659C763.851 22.7159 763.162 22.3927 762.222 21.9961C761.317 21.6168 760.571 21.2332 759.985 20.8453C759.407 20.4573 758.976 20.0004 758.692 19.4746C758.416 18.9401 758.278 18.2634 758.278 17.4444C758.278 16.1082 758.795 15.1039 759.83 14.4315C760.873 13.7504 762.265 13.4099 764.007 13.4099C764.903 13.4099 765.757 13.5004 766.567 13.6815C767.386 13.8625 768.226 14.1513 769.088 14.5478L767.899 17.3927C767.183 17.0823 766.507 16.828 765.869 16.6297C765.239 16.4315 764.597 16.3323 763.942 16.3323C763.364 16.3323 762.929 16.4099 762.636 16.5651C762.343 16.7203 762.196 16.9573 762.196 17.2763C762.196 17.5091 762.269 17.7159 762.416 17.897C762.571 18.078 762.864 18.2806 763.295 18.5047C763.735 18.7203 764.377 19.0004 765.222 19.3453C766.041 19.6815 766.752 20.0349 767.356 20.4056C767.959 20.7677 768.425 21.2203 768.752 21.7634C769.08 22.2978 769.244 22.9918 769.244 23.8453Z" fill="#666D80"/>
<path d="M755.899 20.8841C755.899 22.0909 755.735 23.1599 755.407 24.0909C755.088 25.022 754.619 25.8108 753.998 26.4573C753.386 27.0953 752.644 27.578 751.774 27.9056C750.912 28.2332 749.938 28.397 748.851 28.397C747.834 28.397 746.899 28.2332 746.045 27.9056C745.201 27.578 744.463 27.0953 743.834 26.4573C743.213 25.8108 742.731 25.022 742.386 24.0909C742.05 23.1599 741.882 22.0909 741.882 20.8841C741.882 19.2806 742.166 17.9228 742.735 16.8108C743.304 15.6987 744.114 14.8539 745.166 14.2763C746.218 13.6987 747.472 13.4099 748.929 13.4099C750.282 13.4099 751.481 13.6987 752.524 14.2763C753.576 14.8539 754.399 15.6987 754.994 16.8108C755.597 17.9228 755.899 19.2806 755.899 20.8841ZM745.903 20.8841C745.903 21.8323 746.007 22.6297 746.213 23.2763C746.42 23.9228 746.744 24.4099 747.183 24.7375C747.623 25.0651 748.196 25.2289 748.903 25.2289C749.601 25.2289 750.166 25.0651 750.597 24.7375C751.037 24.4099 751.356 23.9228 751.554 23.2763C751.761 22.6297 751.864 21.8323 751.864 20.8841C751.864 19.9272 751.761 19.1341 751.554 18.5047C751.356 17.8668 751.037 17.3884 750.597 17.0694C750.157 16.7504 749.584 16.5909 748.877 16.5909C747.834 16.5909 747.076 16.9487 746.601 17.6642C746.136 18.3797 745.903 19.453 745.903 20.8841Z" fill="#666D80"/>
<path d="M732.015 34.5004C729.998 34.5004 728.455 34.147 727.386 33.4401C726.325 32.7418 725.795 31.759 725.795 30.4918C725.795 29.6211 726.067 28.8927 726.61 28.3065C727.153 27.7203 727.95 27.3022 729.002 27.0522C728.597 26.8797 728.244 26.5996 727.942 26.2116C727.64 25.8151 727.489 25.397 727.489 24.9573C727.489 24.4056 727.649 23.9487 727.968 23.5866C728.287 23.2159 728.748 22.8539 729.351 22.5004C728.593 22.1728 727.989 21.647 727.541 20.9228C727.101 20.1987 726.881 19.3453 726.881 18.3625C726.881 17.3108 727.11 16.4185 727.567 15.6858C728.032 14.9444 728.705 14.3797 729.584 13.9918C730.472 13.6039 731.55 13.4099 732.817 13.4099C733.084 13.4099 733.394 13.4272 733.748 13.4616C734.101 13.4961 734.425 13.5349 734.718 13.578C735.019 13.6211 735.222 13.6556 735.325 13.6815H740.369V15.6858L738.106 16.2677C738.312 16.5866 738.468 16.9272 738.571 17.2892C738.675 17.6513 738.726 18.0349 738.726 18.4401C738.726 19.9918 738.183 21.203 737.097 22.0737C736.019 22.9358 734.519 23.3668 732.597 23.3668C732.14 23.3409 731.709 23.3065 731.304 23.2634C731.106 23.4185 730.955 23.5823 730.851 23.7547C730.748 23.9272 730.696 24.1082 730.696 24.2978C730.696 24.4875 730.774 24.647 730.929 24.7763C731.093 24.897 731.334 24.9918 731.653 25.0608C731.981 25.1211 732.386 25.1513 732.869 25.1513H735.325C736.912 25.1513 738.119 25.4918 738.946 26.1728C739.782 26.8539 740.2 27.8539 740.2 29.1728C740.2 30.8625 739.494 32.1728 738.08 33.1039C736.675 34.0349 734.653 34.5004 732.015 34.5004ZM732.183 31.9272C733.123 31.9272 733.929 31.8366 734.601 31.6556C735.282 31.4832 735.804 31.2332 736.166 30.9056C736.528 30.5866 736.709 30.203 736.709 29.7547C736.709 29.3927 736.601 29.1039 736.386 28.8884C736.179 28.6815 735.86 28.5349 735.429 28.4487C735.006 28.3625 734.463 28.3194 733.8 28.3194H731.756C731.274 28.3194 730.838 28.397 730.45 28.5522C730.071 28.7073 729.769 28.9228 729.545 29.1987C729.321 29.4832 729.209 29.8108 729.209 30.1815C729.209 30.7246 729.468 31.1513 729.985 31.4616C730.511 31.772 731.244 31.9272 732.183 31.9272ZM732.817 20.9616C733.558 20.9616 734.101 20.7332 734.446 20.2763C734.791 19.8194 734.963 19.1987 734.963 18.4142C734.963 17.5435 734.782 16.8927 734.42 16.4616C734.067 16.022 733.532 15.8022 732.817 15.8022C732.093 15.8022 731.55 16.022 731.187 16.4616C730.825 16.8927 730.644 17.5435 730.644 18.4142C730.644 19.1987 730.821 19.8194 731.175 20.2763C731.537 20.7332 732.084 20.9616 732.817 20.9616Z" fill="#666D80"/>
<path d="M723.636 13.6814V28.1383H719.692V13.6814H723.636ZM721.67 8.01758C722.257 8.01758 722.761 8.15551 723.183 8.43137C723.606 8.69861 723.817 9.20292 723.817 9.9443C723.817 10.6771 723.606 11.1857 723.183 11.4702C722.761 11.746 722.257 11.884 721.67 11.884C721.075 11.884 720.567 11.746 720.144 11.4702C719.731 11.1857 719.524 10.6771 719.524 9.9443C719.524 9.20292 719.731 8.69861 720.144 8.43137C720.567 8.15551 721.075 8.01758 721.67 8.01758Z" fill="#666D80"/>
<path d="M707.511 28.3969C705.899 28.3969 704.584 27.7676 703.567 26.509C702.558 25.2417 702.054 23.384 702.054 20.9357C702.054 18.4615 702.567 16.5909 703.593 15.3236C704.619 14.0478 705.959 13.4098 707.614 13.4098C708.304 13.4098 708.912 13.5046 709.438 13.6943C709.963 13.884 710.416 14.1383 710.795 14.4572C711.183 14.7762 711.511 15.134 711.778 15.5305H711.907C711.856 15.2546 711.791 14.8495 711.713 14.315C711.644 13.7719 711.61 13.2159 711.61 12.6469V8.01758H715.567V28.1383H712.541L711.778 26.2633H711.61C711.36 26.6598 711.045 27.0219 710.666 27.3495C710.295 27.6684 709.851 27.9228 709.334 28.1124C708.817 28.3021 708.209 28.3969 707.511 28.3969ZM708.894 25.2546C709.972 25.2546 710.731 24.9357 711.17 24.2978C711.619 23.6512 711.856 22.6814 711.882 21.3883V20.9615C711.882 19.5564 711.666 18.4831 711.235 17.7417C710.804 16.9917 710.002 16.6167 708.83 16.6167C707.959 16.6167 707.278 16.9917 706.787 17.7417C706.295 18.4917 706.05 19.5736 706.05 20.9874C706.05 22.4012 706.295 23.4659 706.787 24.1814C707.287 24.8969 707.989 25.2546 708.894 25.2546Z" fill="#666D80"/>
<path d="M699.325 18.6599C699.325 20.1168 699.144 21.4444 698.782 22.6427C698.42 23.8323 697.869 24.8582 697.127 25.7203C696.394 26.5823 695.463 27.2461 694.334 27.7117C693.205 28.1685 691.869 28.397 690.325 28.397C688.782 28.397 687.446 28.1685 686.317 27.7117C685.188 27.2461 684.252 26.5823 683.511 25.7203C682.778 24.8582 682.231 23.828 681.869 22.6298C681.506 21.4315 681.325 20.0996 681.325 18.6341C681.325 16.6772 681.644 14.9746 682.282 13.5263C682.929 12.0694 683.92 10.9401 685.256 10.1384C686.593 9.33665 688.291 8.93579 690.351 8.93579C692.403 8.93579 694.088 9.33665 695.407 10.1384C696.735 10.9401 697.718 12.0694 698.356 13.5263C699.002 14.9832 699.325 16.6944 699.325 18.6599ZM685.528 18.6599C685.528 19.9789 685.692 21.1168 686.019 22.0737C686.356 23.022 686.877 23.7548 687.584 24.272C688.291 24.7806 689.205 25.0349 690.325 25.0349C691.463 25.0349 692.386 24.7806 693.093 24.272C693.8 23.7548 694.313 23.022 694.631 22.0737C694.959 21.1168 695.123 19.9789 695.123 18.6599C695.123 16.6772 694.752 15.1168 694.011 13.9789C693.269 12.841 692.05 12.272 690.351 12.272C689.222 12.272 688.3 12.5306 687.584 13.0479C686.877 13.5565 686.356 14.2892 686.019 15.2461C685.692 16.1944 685.528 17.3323 685.528 18.6599Z" fill="#666D80"/>
<path d="M641.511 16.3448V5.27006C641.511 4.65485 642.158 4.25471 642.709 4.52984L664.858 15.6046C665.639 15.9951 665.361 17.1724 664.488 17.1724H642.338C641.881 17.1724 641.511 16.8019 641.511 16.3448Z" fill="#666D80"/>
<path d="M671.304 3.93129V15.4106C671.304 16.028 670.652 16.428 670.102 16.1485L647.491 4.66923C646.715 4.27514 646.995 3.10371 647.866 3.10371H670.476C670.933 3.10371 671.304 3.47423 671.304 3.93129Z" fill="#666D80"/>
<path d="M641.511 19.6557V30.7304C641.511 31.3456 642.158 31.7458 642.709 31.4706L664.858 20.3959C665.639 20.0054 665.361 18.8281 664.488 18.8281H642.338C641.881 18.8281 641.511 19.1986 641.511 19.6557Z" fill="#666D80"/>
<path d="M671.304 32.0692V20.5899C671.304 19.9725 670.652 19.5725 670.102 19.852L647.491 31.3313C646.715 31.7253 646.995 32.8968 647.866 32.8968H670.476C670.933 32.8968 671.304 32.5263 671.304 32.0692Z" fill="#666D80"/>
<path fill-rule="evenodd" clip-rule="evenodd" d="M637.994 4.34507C637.994 1.94549 639.939 0.000244141 642.338 0.000244141H670.476C672.876 0.000244141 674.821 1.94549 674.821 4.34507V31.6554C674.821 34.055 672.876 36.0002 670.476 36.0002H642.338C639.939 36.0002 637.994 34.055 637.994 31.6554V4.34507ZM642.338 2.06921C641.082 2.06921 640.063 3.08815 640.063 4.34507V31.6554C640.063 32.9123 641.082 33.9313 642.338 33.9313H670.476C671.733 33.9313 672.752 32.9123 672.752 31.6554V4.34507C672.752 3.08815 671.733 2.06921 670.476 2.06921H642.338Z" fill="#666D80"/>
<path d="M989.127 8.37318V12.6888H977.102V8.37318H989.127ZM979.629 3.41211H985.844V21.8179C985.844 22.3466 985.906 22.7585 986.029 23.0535C986.152 23.3363 986.361 23.5392 986.656 23.6621C986.963 23.7728 987.369 23.8281 987.873 23.8281C988.23 23.8281 988.525 23.822 988.758 23.8097C988.992 23.7851 989.213 23.7544 989.422 23.7175V28.1622C988.893 28.3343 988.34 28.4634 987.762 28.5494C987.184 28.6478 986.57 28.697 985.918 28.697C984.59 28.697 983.453 28.488 982.506 28.0699C981.572 27.6519 980.859 26.9941 980.367 26.0966C979.875 25.199 979.629 24.031 979.629 22.5925V3.41211Z" fill="#666D80"/>
<path d="M974.779 8.37322V28.3282H968.545V8.37322H974.779ZM968.176 3.22772C968.176 2.34247 968.496 1.61706 969.135 1.05149C969.775 0.485912 970.605 0.203125 971.625 0.203125C972.646 0.203125 973.475 0.485912 974.115 1.05149C974.754 1.61706 975.074 2.34247 975.074 3.22772C975.074 4.11297 974.754 4.83838 974.115 5.40395C973.475 5.96953 972.646 6.25232 971.625 6.25232C970.605 6.25232 969.775 5.96953 969.135 5.40395C968.496 4.83838 968.176 4.11297 968.176 3.22772Z" fill="#666D80"/>
<path d="M950.821 1.47559V28.3281H944.348V1.47559H950.821ZM966.848 1.47559L956.446 15.0863L950.36 21.7441L949.18 15.8055L953.071 9.90388L958.862 1.47559H966.848ZM959.194 28.3281L952.26 16.2297L957.295 12.5227L966.848 28.3281H959.194Z" fill="#666D80"/>
<path d="M941.582 8.37318V12.6888H929.557V8.37318H941.582ZM932.084 3.41211H938.299V21.8179C938.299 22.3466 938.36 22.7585 938.483 23.0535C938.606 23.3363 938.815 23.5392 939.11 23.6621C939.418 23.7728 939.824 23.8281 940.328 23.8281C940.684 23.8281 940.979 23.822 941.213 23.8097C941.446 23.7851 941.668 23.7544 941.877 23.7175V28.1622C941.348 28.3343 940.795 28.4634 940.217 28.5494C939.639 28.6478 939.024 28.697 938.373 28.697C937.045 28.697 935.908 28.488 934.961 28.0699C934.026 27.6519 933.313 26.9941 932.821 26.0966C932.33 25.199 932.084 24.031 932.084 22.5925V3.41211Z" fill="#666D80"/>
<path d="M909.049 18.5536V18.1663C909.049 16.7032 909.258 15.3569 909.676 14.1274C910.094 12.8856 910.709 11.8097 911.52 10.8999C912.332 9.99005 913.334 9.28309 914.527 8.77899C915.719 8.26259 917.096 8.00439 918.658 8.00439C920.231 8.00439 921.615 8.26259 922.807 8.77899C924.012 9.28309 925.02 9.99005 925.832 10.8999C926.643 11.8097 927.258 12.8856 927.676 14.1274C928.094 15.3569 928.303 16.7032 928.303 18.1663V18.5536C928.303 20.0044 928.094 21.3507 927.676 22.5925C927.258 23.822 926.643 24.8979 925.832 25.82C925.02 26.7298 924.018 27.4368 922.826 27.9409C921.633 28.445 920.256 28.6971 918.695 28.6971C917.133 28.6971 915.75 28.445 914.545 27.9409C913.34 27.4368 912.332 26.7298 911.52 25.82C910.709 24.8979 910.094 23.822 909.676 22.5925C909.258 21.3507 909.049 20.0044 909.049 18.5536ZM915.264 18.1663V18.5536C915.264 19.3036 915.32 20.0044 915.43 20.6561C915.541 21.3077 915.725 21.8794 915.984 22.3712C916.242 22.8507 916.592 23.2257 917.035 23.4962C917.477 23.7667 918.031 23.902 918.695 23.902C919.346 23.902 919.887 23.7667 920.318 23.4962C920.76 23.2257 921.111 22.8507 921.369 22.3712C921.627 21.8794 921.811 21.3077 921.922 20.6561C922.033 20.0044 922.088 19.3036 922.088 18.5536V18.1663C922.088 17.4409 922.033 16.7585 921.922 16.1192C921.811 15.4675 921.627 14.8958 921.369 14.404C921.111 13.8999 920.76 13.5065 920.318 13.2237C919.875 12.9409 919.322 12.7995 918.658 12.7995C918.006 12.7995 917.459 12.9409 917.016 13.2237C916.586 13.5065 916.242 13.8999 915.984 14.404C915.725 14.8958 915.541 15.4675 915.43 16.1192C915.32 16.7585 915.264 17.4409 915.264 18.1663Z" fill="#666D80"/>
<path d="M905.988 0.000244141V28.3282H899.754V0.000244141H905.988Z" fill="#666D80"/>
<path d="M895.586 8.37322V28.3282H889.352V8.37322H895.586ZM888.983 3.22772C888.983 2.34247 889.303 1.61706 889.942 1.05149C890.582 0.485912 891.412 0.203125 892.432 0.203125C893.453 0.203125 894.282 0.485912 894.922 1.05149C895.561 1.61706 895.881 2.34247 895.881 3.22772C895.881 4.11297 895.561 4.83838 894.922 5.40395C894.282 5.96953 893.453 6.25232 892.432 6.25232C891.412 6.25232 890.582 5.96953 889.942 5.40395C889.303 4.83838 888.983 4.11297 888.983 3.22772Z" fill="#666D80"/>
<path d="M874.008 12.2093V36.0003H867.793V8.37325H873.584L874.008 12.2093ZM886.254 18.111V18.4983C886.254 19.9491 886.088 21.2954 885.756 22.5372C885.424 23.779 884.932 24.861 884.28 25.7831C883.629 26.7052 882.817 27.4245 881.846 27.9409C880.887 28.445 879.774 28.6971 878.508 28.6971C877.315 28.6971 876.289 28.4327 875.428 27.904C874.567 27.3753 873.848 26.6438 873.27 25.7093C872.692 24.7749 872.225 23.7052 871.869 22.5003C871.512 21.2954 871.229 20.0229 871.02 18.6827V18.1847C871.229 16.7462 871.512 15.4122 871.869 14.1827C872.225 12.9409 872.692 11.8589 873.27 10.9368C873.848 10.0146 874.561 9.29538 875.41 8.77899C876.27 8.26259 877.297 8.00439 878.489 8.00439C879.756 8.00439 880.869 8.24415 881.828 8.72366C882.799 9.20317 883.61 9.89169 884.262 10.7892C884.926 11.6745 885.424 12.738 885.756 13.9798C886.088 15.2216 886.254 16.5987 886.254 18.111ZM880.039 18.4983V18.111C880.039 17.3364 879.983 16.6294 879.873 15.9901C879.762 15.3384 879.584 14.7729 879.338 14.2933C879.104 13.8138 878.791 13.445 878.397 13.1868C878.004 12.9286 877.518 12.7995 876.94 12.7995C876.276 12.7995 875.717 12.904 875.262 13.113C874.819 13.3097 874.463 13.6171 874.192 14.0351C873.934 14.4409 873.75 14.9511 873.639 15.5659C873.541 16.1683 873.498 16.8753 873.51 17.6868V19.1991C873.485 20.1335 873.578 20.9573 873.787 21.6704C873.996 22.3712 874.358 22.9184 874.875 23.3118C875.391 23.7052 876.092 23.902 876.977 23.902C877.567 23.902 878.059 23.7667 878.453 23.4962C878.846 23.2134 879.16 22.8261 879.393 22.3343C879.627 21.8302 879.793 21.2524 879.891 20.6007C879.989 19.9491 880.039 19.2483 880.039 18.4983Z" fill="#666D80"/>
<path d="M845.717 18.5536V18.1663C845.717 16.7032 845.926 15.3569 846.344 14.1274C846.762 12.8856 847.377 11.8097 848.188 10.8999C849 9.99005 850.002 9.28309 851.194 8.77899C852.387 8.26259 853.764 8.00439 855.325 8.00439C856.899 8.00439 858.282 8.26259 859.475 8.77899C860.68 9.28309 861.688 9.99005 862.5 10.8999C863.311 11.8097 863.926 12.8856 864.344 14.1274C864.762 15.3569 864.971 16.7032 864.971 18.1663V18.5536C864.971 20.0044 864.762 21.3507 864.344 22.5925C863.926 23.822 863.311 24.8979 862.5 25.82C861.688 26.7298 860.686 27.4368 859.494 27.9409C858.301 28.445 856.924 28.6971 855.362 28.6971C853.801 28.6971 852.418 28.445 851.213 27.9409C850.008 27.4368 849 26.7298 848.188 25.82C847.377 24.8979 846.762 23.822 846.344 22.5925C845.926 21.3507 845.717 20.0044 845.717 18.5536ZM851.932 18.1663V18.5536C851.932 19.3036 851.987 20.0044 852.098 20.6561C852.209 21.3077 852.393 21.8794 852.651 22.3712C852.909 22.8507 853.26 23.2257 853.703 23.4962C854.145 23.7667 854.698 23.902 855.362 23.902C856.014 23.902 856.555 23.7667 856.985 23.4962C857.428 23.2257 857.778 22.8507 858.037 22.3712C858.295 21.8794 858.479 21.3077 858.59 20.6561C858.7 20.0044 858.756 19.3036 858.756 18.5536V18.1663C858.756 17.4409 858.7 16.7585 858.59 16.1192C858.479 15.4675 858.295 14.8958 858.037 14.404C857.778 13.8999 857.428 13.5065 856.985 13.2237C856.543 12.9409 855.989 12.7995 855.325 12.7995C854.674 12.7995 854.127 12.9409 853.684 13.2237C853.254 13.5065 852.909 13.8999 852.651 14.404C852.393 14.8958 852.209 15.4675 852.098 16.1192C851.987 16.7585 851.932 17.4409 851.932 18.1663Z" fill="#666D80"/>
<path d="M837.27 19.236H843.725C843.639 21.1048 843.135 22.7524 842.213 24.1786C841.291 25.6048 840.012 26.7175 838.377 27.5167C836.754 28.3036 834.836 28.697 832.623 28.697C830.828 28.697 829.223 28.3958 827.809 27.7933C826.407 27.1909 825.215 26.3241 824.231 25.1929C823.26 24.0618 822.516 22.6909 822 21.0802C821.496 19.4696 821.244 17.656 821.244 15.6396V14.1827C821.244 12.1663 821.508 10.3527 822.037 8.74208C822.578 7.11913 823.34 5.74208 824.323 4.61093C825.319 3.46748 826.512 2.59453 827.901 1.99207C829.291 1.38961 830.834 1.08838 832.53 1.08838C834.867 1.08838 836.84 1.50641 838.451 2.34248C840.061 3.17855 841.309 4.32814 842.194 5.79126C843.08 7.24208 843.602 8.89577 843.762 10.7523H837.307C837.282 9.74413 837.11 8.90192 836.791 8.22569C836.471 7.53716 835.967 7.02077 835.278 6.6765C834.59 6.33224 833.674 6.16011 832.53 6.16011C831.731 6.16011 831.037 6.30765 830.446 6.60273C829.856 6.89782 829.364 7.36503 828.971 8.00437C828.578 8.64372 828.282 9.47364 828.086 10.4941C827.901 11.5023 827.809 12.7195 827.809 14.1458V15.6396C827.809 17.0659 827.895 18.2831 828.067 19.2913C828.239 20.2995 828.516 21.1233 828.897 21.7626C829.278 22.4019 829.77 22.8753 830.373 23.1827C830.987 23.4778 831.737 23.6253 832.623 23.6253C833.606 23.6253 834.436 23.4716 835.112 23.1642C835.789 22.8446 836.311 22.3651 836.68 21.7257C837.049 21.0741 837.246 20.2442 837.27 19.236Z" fill="#666D80"/>
<path fill-rule="evenodd" clip-rule="evenodd" d="M1043.33 0C1042.28 0 1041.42 0.855707 1041.42 1.91127C1041.42 5.42165 1044.27 8.26737 1047.78 8.26737H1051.39C1050.98 9.48193 1050.76 10.7823 1050.76 12.1344V26.9356C1050.76 30.6178 1053.74 33.6029 1057.42 33.6029C1061.11 33.6029 1064.09 30.6178 1064.09 26.9356V10.8898C1064.09 10.6198 1063.87 10.4009 1063.6 10.4009C1062.25 10.4009 1061.16 11.4954 1061.16 12.8455V26.9356C1061.16 28.9977 1059.49 30.6693 1057.42 30.6693C1055.36 30.6693 1053.69 28.9977 1053.69 26.9356V12.1344C1053.69 7.05292 1057.81 2.93358 1062.89 2.93358H1072.18C1071.71 4.40371 1070.33 5.46713 1068.7 5.46713H1062.73C1059.06 5.46713 1056.09 8.4413 1056.09 12.1101V26.1356C1056.09 26.9457 1056.75 27.6024 1057.56 27.6024C1058.37 27.6024 1059.02 26.9457 1059.02 26.1356V12.1101C1059.02 10.0615 1060.68 8.40072 1062.73 8.40072H1068.7C1072.34 8.40072 1075.29 5.44928 1075.29 1.80849C1075.29 0.809688 1074.48 0 1073.48 0H1062.89C1062.72 0 1062.56 0.00332799 1062.4 0.00992099C1062.34 0.00336864 1062.28 0 1062.22 0H1043.33ZM1054.98 2.93358H1044.51C1044.95 4.32443 1046.24 5.33379 1047.78 5.33379H1052.84C1053.44 4.44179 1054.16 3.63454 1054.98 2.93358Z" fill="#666D80"/>
<path d="M1162.94 10.7319L1152.62 35.9377H1149.68L1153.06 27.6817L1146.15 10.7319H1149.31L1154.69 24.617L1160 10.7319H1162.94Z" fill="#666D80"/>
<path d="M1129.89 13.8907C1130.46 12.9108 1131.29 12.0977 1132.4 11.4514C1133.52 10.7843 1134.82 10.4507 1136.31 10.4507C1137.83 10.4507 1139.2 10.8155 1140.43 11.5452C1141.68 12.2749 1142.66 13.3069 1143.37 14.6412C1144.08 15.9547 1144.44 17.487 1144.44 19.2383C1144.44 20.9687 1144.08 22.5115 1143.37 23.8667C1142.66 25.2218 1141.68 26.2746 1140.43 27.0252C1139.2 27.7757 1137.83 28.151 1136.31 28.151C1134.85 28.151 1133.55 27.8279 1132.43 27.1816C1131.32 26.5144 1130.48 25.6909 1129.89 24.711V36.0004H1127.05V10.7321H1129.89V13.8907ZM1141.53 19.2383C1141.53 17.9457 1141.27 16.8199 1140.75 15.8609C1140.22 14.9018 1139.52 14.1721 1138.62 13.6718C1137.74 13.1714 1136.77 12.9212 1135.71 12.9212C1134.67 12.9212 1133.7 13.1818 1132.8 13.703C1131.93 14.2034 1131.22 14.9435 1130.68 15.9234C1130.15 16.8824 1129.89 17.9978 1129.89 19.2696C1129.89 20.5622 1130.15 21.6984 1130.68 22.6783C1131.22 23.6373 1131.93 24.3774 1132.8 24.8987C1133.7 25.399 1134.67 25.6492 1135.71 25.6492C1136.77 25.6492 1137.74 25.399 1138.62 24.8987C1139.52 24.3774 1140.22 23.6373 1140.75 22.6783C1141.27 21.6984 1141.53 20.5518 1141.53 19.2383Z" fill="#666D80"/>
<path d="M1120.82 7.94885C1120.28 7.94885 1119.82 7.76122 1119.45 7.38595C1119.07 7.01068 1118.88 6.55201 1118.88 6.00995C1118.88 5.46789 1119.07 5.00923 1119.45 4.63395C1119.82 4.25868 1120.28 4.07104 1120.82 4.07104C1121.34 4.07104 1121.78 4.25868 1122.14 4.63395C1122.51 5.00923 1122.7 5.46789 1122.7 6.00995C1122.7 6.55201 1122.51 7.01068 1122.14 7.38595C1121.78 7.76122 1121.34 7.94885 1120.82 7.94885ZM1122.2 10.7321V27.8695H1119.35V10.7321H1122.2Z" fill="#666D80"/>
<path d="M1097.16 19.2383C1097.16 17.487 1097.51 15.9547 1098.22 14.6412C1098.93 13.3069 1099.9 12.2749 1101.13 11.5452C1102.38 10.8155 1103.76 10.4507 1105.29 10.4507C1106.79 10.4507 1108.09 10.7738 1109.2 11.4201C1110.3 12.0664 1111.12 12.8795 1111.67 13.8594V10.7321H1114.54V27.8696H1111.67V24.6797C1111.1 25.6805 1110.26 26.5144 1109.13 27.1816C1108.03 27.8279 1106.74 28.151 1105.26 28.151C1103.73 28.151 1102.36 27.7757 1101.13 27.0252C1099.9 26.2746 1098.93 25.2218 1098.22 23.8667C1097.51 22.5115 1097.16 20.9687 1097.16 19.2383ZM1111.67 19.2696C1111.67 17.977 1111.41 16.8512 1110.88 15.8921C1110.36 14.9331 1109.65 14.2034 1108.76 13.703C1107.88 13.1818 1106.91 12.9212 1105.85 12.9212C1104.79 12.9212 1103.82 13.1714 1102.94 13.6718C1102.07 14.1721 1101.37 14.9018 1100.85 15.8609C1100.32 16.8199 1100.06 17.9457 1100.06 19.2383C1100.06 20.5518 1100.32 21.6984 1100.85 22.6783C1101.37 23.6373 1102.07 24.3774 1102.94 24.8987C1103.82 25.399 1104.79 25.6492 1105.85 25.6492C1106.91 25.6492 1107.88 25.399 1108.76 24.8987C1109.65 24.3774 1110.36 23.6373 1110.88 22.6783C1111.41 21.6984 1111.67 20.5622 1111.67 19.2696Z" fill="#666D80"/>
<path d="M1094.72 6.07227V8.38644H1088.77V27.8693H1085.93V8.38644H1079.96V6.07227H1094.72Z" fill="#666D80"/>
<defs>
<clipPath id="clip0_407_299">
<rect width="207.969" height="36" fill="white" transform="translate(0.0576172 0.000244141)"/>
</clipPath>
<clipPath id="clip1_407_299">
<rect width="155.25" height="36" fill="white" transform="translate(260.027 0.000244141)"/>
</clipPath>
<clipPath id="clip2_407_299">
<rect width="118.717" height="36" fill="white" transform="translate(467.277 0.000244141)"/>
</clipPath>
</defs>
</svg>
