<svg width="207" height="207" viewBox="0 0 207 207" fill="none" xmlns="http://www.w3.org/2000/svg">
<g filter="url(#filter0_di_407_363)">
<rect x="4.5" y="4.5437" width="198" height="198" rx="99" fill="url(#paint0_linear_407_363)" shape-rendering="crispEdges"/>
<rect x="3.5" y="3.5437" width="200" height="200" rx="100" stroke="black" stroke-opacity="0.1" stroke-width="2" shape-rendering="crispEdges"/>
<path d="M144.176 102.758L145.108 101.759H144.858C144.994 101.491 145.103 101.209 145.182 100.916C145.367 100.227 145.38 99.5034 145.219 98.8083C145.058 98.1133 144.728 97.4686 144.259 96.9312C143.789 96.3939 143.195 95.9804 142.528 95.7273L142.526 95.7265L115.984 85.7742L122.776 51.8584L122.776 51.8553C122.957 50.9303 122.831 49.9716 122.419 49.1242C122.006 48.2767 121.33 47.5863 120.49 47.1572C119.651 46.7282 118.695 46.5837 117.767 46.7455C116.838 46.9074 115.988 47.3669 115.343 48.0546L115.343 48.0555L62.8459 104.302C62.8453 104.303 62.8446 104.303 62.844 104.304C62.3511 104.824 61.9945 105.458 61.8059 106.149C61.6172 106.841 61.6028 107.57 61.7641 108.269C61.9255 108.968 62.2575 109.616 62.7305 110.156C63.2035 110.695 63.8028 111.109 64.4748 111.36L91.0158 121.326L84.2428 155.205L84.2422 155.208C84.062 156.133 84.1875 157.092 84.5999 157.939C85.0123 158.787 85.6891 159.477 86.5282 159.906C87.3674 160.335 88.3233 160.48 89.2518 160.318C90.1803 160.156 91.0309 159.696 91.6754 159.009L91.6762 159.008L144.176 102.758Z" fill="url(#paint1_linear_407_363)" stroke="url(#paint2_linear_407_363)" stroke-width="1.18736"/>
</g>
<defs>
<filter id="filter0_di_407_363" x="0.5" y="0.543701" width="206" height="206" filterUnits="userSpaceOnUse" color-interpolation-filters="sRGB">
<feFlood flood-opacity="0" result="BackgroundImageFix"/>
<feColorMatrix in="SourceAlpha" type="matrix" values="0 0 0 0 0 0 0 0 0 0 0 0 0 0 0 0 0 0 127 0" result="hardAlpha"/>
<feMorphology radius="2" operator="dilate" in="SourceAlpha" result="effect1_dropShadow_407_363"/>
<feOffset/>
<feComposite in2="hardAlpha" operator="out"/>
<feColorMatrix type="matrix" values="0 0 0 0 0.481725 0 0 0 0 0.0745092 0 0 0 0 1 0 0 0 0.55 0"/>
<feBlend mode="normal" in2="BackgroundImageFix" result="effect1_dropShadow_407_363"/>
<feBlend mode="normal" in="SourceGraphic" in2="effect1_dropShadow_407_363" result="shape"/>
<feColorMatrix in="SourceAlpha" type="matrix" values="0 0 0 0 0 0 0 0 0 0 0 0 0 0 0 0 0 0 127 0" result="hardAlpha"/>
<feOffset dy="1"/>
<feGaussianBlur stdDeviation="2.5"/>
<feComposite in2="hardAlpha" operator="arithmetic" k2="-1" k3="1"/>
<feColorMatrix type="matrix" values="0 0 0 0 1 0 0 0 0 1 0 0 0 0 1 0 0 0 0.25 0"/>
<feBlend mode="normal" in2="shape" result="effect2_innerShadow_407_363"/>
</filter>
<linearGradient id="paint0_linear_407_363" x1="93.5" y1="49.5437" x2="93.5" y2="340.544" gradientUnits="userSpaceOnUse">
<stop stop-color="#1C1634"/>
<stop offset="1" stop-color="#BE33FF"/>
</linearGradient>
<linearGradient id="paint1_linear_407_363" x1="118.5" y1="47.5437" x2="42.0087" y2="175.708" gradientUnits="userSpaceOnUse">
<stop stop-color="#FF45F8" stop-opacity="0.585"/>
<stop offset="0.37" stop-color="white"/>
<stop offset="0.62" stop-color="#9554FF"/>
<stop offset="1" stop-color="#181616" stop-opacity="0"/>
</linearGradient>
<linearGradient id="paint2_linear_407_363" x1="103.492" y1="59.3699" x2="102.54" y2="160.908" gradientUnits="userSpaceOnUse">
<stop stop-color="white"/>
<stop offset="1" stop-opacity="0"/>
</linearGradient>
</defs>
</svg>
