<svg width="733" height="260" viewBox="0 0 733 260" fill="none" xmlns="http://www.w3.org/2000/svg">
<g filter="url(#filter0_di_491_8189)">
<rect x="230.5" y="82.5437" width="278" height="121" rx="60.5" fill="url(#paint0_linear_491_8189)" shape-rendering="crispEdges"/>
<rect x="229.5" y="81.5437" width="280" height="123" rx="61.5" stroke="black" stroke-opacity="0.1" stroke-width="2" shape-rendering="crispEdges"/>
</g>
<rect x="186.5" y="53.5437" width="357" height="178" rx="89" stroke="#E023FF" stroke-opacity="0.05" stroke-width="2"/>
<rect x="153.5" y="26.5437" width="427" height="232" rx="116" stroke="#E023FF" stroke-opacity="0.05" stroke-width="2"/>
<path d="M-2.5 142.544H118.972V142.544C118.972 64.6716 182.1 1.5437 259.972 1.5437H466.405C544.277 1.5437 607.405 64.6716 607.405 142.544V142.544H732.5" stroke="#E023FF" stroke-opacity="0.05" stroke-width="2"/>
<mask id="path-6-outside-1_491_8189" maskUnits="userSpaceOnUse" x="289.5" y="109.544" width="160" height="90" fill="black">
<rect fill="white" x="289.5" y="109.544" width="160" height="90"/>
<path d="M291.109 143.878L338.662 123.62V131.99L300.905 147.683L338.662 163.375V171.745L291.109 151.487V143.878ZM353.514 197.899H343.908L386.041 111.256H395.552L353.514 197.899ZM448.445 151.487L400.891 171.745V163.375L438.649 147.683L400.891 131.99V123.62L448.445 143.878V151.487Z"/>
</mask>
<path d="M291.109 143.878L338.662 123.62V131.99L300.905 147.683L338.662 163.375V171.745L291.109 151.487V143.878ZM353.514 197.899H343.908L386.041 111.256H395.552L353.514 197.899ZM448.445 151.487L400.891 171.745V163.375L438.649 147.683L400.891 131.99V123.62L448.445 143.878V151.487Z" fill="url(#paint1_linear_491_8189)"/>
<path d="M291.109 143.878L290.749 143.035L290.192 143.272V143.878H291.109ZM338.662 123.62H339.579V122.233L338.303 122.777L338.662 123.62ZM338.662 131.99L339.014 132.837L339.579 132.602V131.99H338.662ZM300.905 147.683L300.553 146.836L298.515 147.683L300.553 148.53L300.905 147.683ZM338.662 163.375H339.579V162.763L339.014 162.529L338.662 163.375ZM338.662 171.745L338.303 172.589L339.579 173.132V171.745H338.662ZM291.109 151.487H290.192V152.093L290.749 152.331L291.109 151.487ZM291.468 144.722L339.022 124.464L338.303 122.777L290.749 143.035L291.468 144.722ZM337.745 123.62V131.99H339.579V123.62H337.745ZM338.31 131.143L300.553 146.836L301.257 148.53L339.014 132.837L338.31 131.143ZM300.553 148.53L338.31 164.222L339.014 162.529L301.257 146.836L300.553 148.53ZM337.745 163.375V171.745H339.579V163.375H337.745ZM339.022 170.901L291.468 150.643L290.749 152.331L338.303 172.589L339.022 170.901ZM292.026 151.487V143.878H290.192V151.487H292.026ZM353.514 197.899V198.817H354.088L354.339 198.3L353.514 197.899ZM343.908 197.899L343.083 197.498L342.442 198.817H343.908V197.899ZM386.041 111.256V110.339H385.467L385.216 110.855L386.041 111.256ZM395.552 111.256L396.377 111.657L397.016 110.339H395.552V111.256ZM353.514 196.982H343.908V198.817H353.514V196.982ZM344.733 198.3L386.866 111.658L385.216 110.855L343.083 197.498L344.733 198.3ZM386.041 112.174H395.552V110.339H386.041V112.174ZM394.726 110.856L352.689 197.499L354.339 198.3L396.377 111.657L394.726 110.856ZM448.445 151.487L448.804 152.331L449.362 152.093V151.487H448.445ZM400.891 171.745H399.974V173.132L401.25 172.589L400.891 171.745ZM400.891 163.375L400.539 162.529L399.974 162.763V163.375H400.891ZM438.649 147.683L439.001 148.53L441.038 147.683L439.001 146.836L438.649 147.683ZM400.891 131.99H399.974V132.602L400.539 132.837L400.891 131.99ZM400.891 123.62L401.25 122.777L399.974 122.233V123.62H400.891ZM448.445 143.878H449.362V143.272L448.804 143.035L448.445 143.878ZM448.085 150.643L400.532 170.901L401.25 172.589L448.804 152.331L448.085 150.643ZM401.808 171.745V163.375H399.974V171.745H401.808ZM401.243 164.222L439.001 148.53L438.297 146.836L400.539 162.529L401.243 164.222ZM439.001 146.836L401.243 131.143L400.539 132.837L438.297 148.53L439.001 146.836ZM401.808 131.99V123.62H399.974V131.99H401.808ZM400.532 124.464L448.085 144.722L448.804 143.035L401.25 122.777L400.532 124.464ZM447.528 143.878V151.487H449.362V143.878H447.528Z" fill="url(#paint2_linear_491_8189)" mask="url(#path-6-outside-1_491_8189)"/>
<defs>
<filter id="filter0_di_491_8189" x="226.5" y="78.5437" width="286" height="129" filterUnits="userSpaceOnUse" color-interpolation-filters="sRGB">
<feFlood flood-opacity="0" result="BackgroundImageFix"/>
<feColorMatrix in="SourceAlpha" type="matrix" values="0 0 0 0 0 0 0 0 0 0 0 0 0 0 0 0 0 0 127 0" result="hardAlpha"/>
<feMorphology radius="2" operator="dilate" in="SourceAlpha" result="effect1_dropShadow_491_8189"/>
<feOffset/>
<feComposite in2="hardAlpha" operator="out"/>
<feColorMatrix type="matrix" values="0 0 0 0 0.481725 0 0 0 0 0.0745092 0 0 0 0 1 0 0 0 0.55 0"/>
<feBlend mode="normal" in2="BackgroundImageFix" result="effect1_dropShadow_491_8189"/>
<feBlend mode="normal" in="SourceGraphic" in2="effect1_dropShadow_491_8189" result="shape"/>
<feColorMatrix in="SourceAlpha" type="matrix" values="0 0 0 0 0 0 0 0 0 0 0 0 0 0 0 0 0 0 127 0" result="hardAlpha"/>
<feOffset dy="1"/>
<feGaussianBlur stdDeviation="2.5"/>
<feComposite in2="hardAlpha" operator="arithmetic" k2="-1" k3="1"/>
<feColorMatrix type="matrix" values="0 0 0 0 1 0 0 0 0 1 0 0 0 0 1 0 0 0 0.25 0"/>
<feBlend mode="normal" in2="shape" result="effect2_innerShadow_491_8189"/>
</filter>
<linearGradient id="paint0_linear_491_8189" x1="355.46" y1="110.044" x2="355.46" y2="287.877" gradientUnits="userSpaceOnUse">
<stop stop-color="#1C1634"/>
<stop offset="1" stop-color="#BE33FF"/>
</linearGradient>
<linearGradient id="paint1_linear_491_8189" x1="401.475" y1="95.7709" x2="368.137" y2="234.52" gradientUnits="userSpaceOnUse">
<stop stop-color="#FF45F8" stop-opacity="0.585"/>
<stop offset="0.37" stop-color="white"/>
<stop offset="0.62" stop-color="#9554FF"/>
<stop offset="1" stop-color="#181616" stop-opacity="0"/>
</linearGradient>
<linearGradient id="paint2_linear_491_8189" x1="370" y1="105.756" x2="369.677" y2="191.495" gradientUnits="userSpaceOnUse">
<stop stop-color="white"/>
<stop offset="1" stop-opacity="0"/>
</linearGradient>
</defs>
</svg>
