<svg width="58" height="110" viewBox="0 0 58 110" fill="none" xmlns="http://www.w3.org/2000/svg">
<path d="M30 31.5437C30 30.7153 29.3284 30.0437 28.5 30.0437C27.6716 30.0437 27 30.7153 27 31.5437H30ZM30 109.044V31.5437H27V109.044H30Z" fill="url(#paint0_linear_407_378)"/>
<path d="M29 31.5437C29 31.2676 28.7761 31.0437 28.5 31.0437C28.2239 31.0437 28 31.2676 28 31.5437H29ZM29 109.044V31.5437H28V109.044H29Z" fill="url(#paint1_linear_407_378)"/>
<g filter="url(#filter0_f_407_378)">
<ellipse cx="29" cy="33.5437" rx="8.5" ry="13" fill="#8237FA"/>
</g>
<defs>
<filter id="filter0_f_407_378" x="0.5" y="0.543701" width="57" height="66" filterUnits="userSpaceOnUse" color-interpolation-filters="sRGB">
<feFlood flood-opacity="0" result="BackgroundImageFix"/>
<feBlend mode="normal" in="SourceGraphic" in2="BackgroundImageFix" result="shape"/>
<feGaussianBlur stdDeviation="10" result="effect1_foregroundBlur_407_378"/>
</filter>
<linearGradient id="paint0_linear_407_378" x1="29" y1="31.5437" x2="28.5" y2="101.544" gradientUnits="userSpaceOnUse">
<stop stop-color="#933FFF"/>
<stop offset="1" stop-color="#801FBB" stop-opacity="0"/>
</linearGradient>
<linearGradient id="paint1_linear_407_378" x1="29" y1="31.5437" x2="29" y2="73.0437" gradientUnits="userSpaceOnUse">
<stop stop-color="white"/>
<stop offset="1" stop-color="#801FBB" stop-opacity="0"/>
</linearGradient>
</defs>
</svg>
